<?xml version="1.0" encoding="utf-8"?>
<!-- Generator: Adobe Illustrator 22.0.1, SVG Export Plug-In . SVG Version: 6.00 Build 0)  -->
<svg version="1.1" id="Capa_1" xmlns="http://www.w3.org/2000/svg" xmlns:xlink="http://www.w3.org/1999/xlink" x="0px" y="0px"
	 viewBox="0 0 392.2 559.3" style="enable-background:new 0 0 392.2 559.3;" xml:space="preserve">
<style type="text/css">
	.st0{opacity:0.2;}
	.st1{fill:#FFFFFF;}
</style>
<g class="st0">
	<g>
		<path class="st1" d="M392.2,113.3v-48c-3.2,3-6.4,6-9.6,9.2c-9.9-9.7-19.8-18.6-29.6-26.6C302.4,7.1,257.8-5.7,227.4,11.8
			c-19.6,11.3-31.5,34.4-34.4,66.7c-0.5,5.4,3.5,10.2,8.9,10.7c5.4,0.5,10.2-3.5,10.7-8.9c1.6-17.9,7.2-41.3,24.6-51.4
			c22.5-13,60.2-0.5,103.3,34.4c9.4,7.6,18.8,16.1,28.3,25.3c-18.9,20.1-37.8,43.3-55.8,68.9c-31.8,2.9-62.1,7.8-89.9,14.4
			c-4.9-18.9-8.2-37-9.9-53.8c-0.5-5.4-5.3-9.4-10.8-8.9c-5.4,0.5-9.4,5.4-8.9,10.8c1.7,17.7,5.3,36.8,10.4,56.8
			c-12.6,3.6-24.7,7.5-36,11.9c-60.7,23.3-94.1,55.5-94.1,90.7s33.4,67.4,94.1,90.7c11.7,4.5,24.1,8.6,37.2,12.2
			c-3.4,13.1-6.1,25.9-8,38.3c-10.1,64.2,1.1,109.2,31.5,126.8c8.9,5.1,19,7.7,30.2,7.7c35,0,79.1-25.7,123.7-69.2
			c3.2,3.1,6.4,6.2,9.7,9.2v-47.9c-3.2,3.6-6.4,7.1-9.7,10.5c-15.4-16.3-30.7-34.7-45.4-54.6c15.2,0.9,30.6,1.3,46.2,1.3
			c3,0,5.9,0,8.9-0.1v-19.8c-2.9,0-5.9,0.1-8.9,0.1c-21.2,0-41.6-0.8-61-2.3c-10.9-15.9-21.4-32.6-31.5-50
			c-9.9-17.1-19-34.4-27.2-51.6c8.5-18,18-36.1,28.4-54.1c10.1-17.4,20.7-34.3,31.8-50.4c18.9-1.4,38.8-2.2,59.4-2.2
			c3,0,5.9,0,8.9,0.1v-19.7c-2.9,0-5.9-0.1-8.9-0.1c-15,0-29.9,0.4-44.6,1.2c14.2-19.2,29-37,43.9-52.9
			C385.8,106.2,389,109.7,392.2,113.3z M93.6,279.5c0-30.9,43-63.1,115.5-83.7c8.2,27.4,19.2,56.1,32.7,85.1
			c-12.9,28.1-23.5,55.9-31.5,82.6C137.1,343,93.6,310.6,93.6,279.5z M368.7,471.9c-3,2.9-5.9,5.7-8.9,8.5
			c-38.5,35.5-74.4,55-100.9,55c-7.7,0-14.5-1.7-20.4-5c-22.5-13-30.5-51.9-21.9-106.6c1.9-11.7,4.4-23.9,7.6-36.4
			c27,6.4,56.4,11.1,87.1,14C329.7,427.4,349,451.2,368.7,471.9z M273.8,342.3c7.5,12.9,15.2,25.5,23.2,37.7
			c-24.3-2.8-46.8-6.7-67.4-11.6c6.2-20.8,14.2-42.3,23.6-64.2C259.6,316.9,266.4,329.7,273.8,342.3z M275,217
			c-7.8,13.5-15.1,27.1-22,40.7c-9.9-22.8-18.2-45.3-24.7-66.8c21.3-5.1,44.8-9.2,70.2-12.1C290.4,191.1,282.6,203.8,275,217z"/>
	</g>
	<path class="st1" d="M383.3,249.9c3.1,0,6.1,0.5,8.9,1.4v-20.3c-2.9-0.5-5.8-0.8-8.9-0.8c-27.2,0-49.4,22.2-49.4,49.4
		c0,27.2,22.2,49.4,49.4,49.4c3,0,6-0.3,8.9-0.8v-20.3c-2.8,0.9-5.8,1.4-8.9,1.4c-16.3,0-29.6-13.3-29.6-29.6S367,249.9,383.3,249.9
		z"/>
</g>
</svg>
