<?xml version="1.0" encoding="utf-8"?>
<!-- Generator: Adobe Illustrator 22.0.1, SVG Export Plug-In . SVG Version: 6.00 Build 0)  -->
<svg version="1.1" xmlns="http://www.w3.org/2000/svg" xmlns:xlink="http://www.w3.org/1999/xlink" x="0px" y="0px"
	 viewBox="0 0 189.9 188.6" style="enable-background:new 0 0 189.9 188.6;" xml:space="preserve">
<style type="text/css">
	.st0{fill:#CCCCCC;}
</style>
<g id="Capa_1">
</g>
<g id="Layer_1">
	<g>
		<path class="st0" d="M80.4,146.7c-8.7,0-15.9,7.1-15.9,15.9s7.1,15.9,15.9,15.9s15.9-7.1,15.9-15.9S89.2,146.7,80.4,146.7z
			 M80.4,169.6c-3.9,0-7-3.1-7-7c0-3.9,3.1-7,7-7s7,3.1,7,7C87.4,166.5,84.3,169.6,80.4,169.6z"/>
		<path class="st0" d="M136.1,146.7c-8.7,0-15.9,7.1-15.9,15.9s7.1,15.9,15.9,15.9s15.9-7.1,15.9-15.9
			C152,153.9,144.8,146.7,136.1,146.7z M136.1,169.6c-3.9,0-7-3.1-7-7c0-3.9,3.1-7,7-7c3.9,0,7,3.1,7,7
			C143.1,166.5,140,169.6,136.1,169.6z"/>
		<path class="st0" d="M76.5,72.1H140c2.4,0,4.4-2,4.4-4.4s-2-4.4-4.4-4.4H76.5c-2.4,0-4.4,2-4.4,4.4C72.1,70.1,74.1,72.1,76.5,72.1
			z"/>
		<path class="st0" d="M136.5,86.2H80c-2.4,0-4.4,2-4.4,4.4s2,4.4,4.4,4.4h56.6c2.4,0,4.4-2,4.4-4.4C141,88.2,139,86.2,136.5,86.2z"
			/>
		<path class="st0" d="M183.2,43.5c-1.7-2.1-4.2-3.3-6.9-3.3h-138l-2.8-13.5c-0.6-2.8-2.5-5.2-5.1-6.3L11,11.9
			c-2.2-1-4.9,0.1-5.8,2.3c-1,2.2,0.1,4.9,2.3,5.8l19.4,8.4l21.4,104c0.8,4.1,4.5,7.1,8.7,7.1h106.1c2.4,0,4.4-2,4.4-4.4
			s-2-4.4-4.4-4.4H57l-2.6-12.7H164c4.2,0,7.8-3,8.7-7.1L185,50.9C185.6,48.2,184.9,45.5,183.2,43.5z M164,109.2H52.6L40.2,49.1
			l136.1,0L164,109.2z"/>
	</g>
</g>
</svg>
