<?xml version="1.0" encoding="utf-8"?>
<!-- Generator: Adobe Illustrator 22.0.1, SVG Export Plug-In . SVG Version: 6.00 Build 0)  -->
<svg version="1.1" id="Capa_1" xmlns="http://www.w3.org/2000/svg" xmlns:xlink="http://www.w3.org/1999/xlink" x="0px" y="0px"
	 viewBox="0 0 392.2 559.3" style="enable-background:new 0 0 392.2 559.3;" xml:space="preserve">
<style type="text/css">
	.st0{opacity:0.2;}
	.st1{fill:#FFFFFF;}
</style>
<g class="st0">
	<path class="st1" d="M51.3,27.8h340.9V3.3H51.3C26.2,3.3,5.8,23.8,5.8,48.9v315.5c0,25.1,20.4,45.5,45.5,45.5h171.1l-4.5,42.8
		c-0.4,3.5,0.8,6.9,3.1,9.5c2.3,2.6,5.6,4.1,9.1,4.1h129.5c3.5,0,6.8-1.5,9.1-4.1c2.3-2.6,3.4-6,3.1-9.5l-4.5-42.8h25.1v-24.5H51.3
		c-11.6,0-21-9.4-21-21v-13.3h361.9v-24.5H30.2V48.9C30.2,37.3,39.7,27.8,51.3,27.8z M247,409.9h95.5l3.4,31.8H243.6L247,409.9z"/>
	<path class="st1" d="M392.2,507.8v-24.5H86.3c-4.6,0-8.7,2.5-10.9,6.6l-24.2,46.5c-2,3.8-1.8,8.3,0.4,12c2.2,3.7,6.2,5.9,10.5,5.9
		h330.1v-24.5H82.2l11.5-22H392.2z"/>
</g>
</svg>
