<?xml version="1.0" encoding="utf-8"?>
<!-- Generator: Adobe Illustrator 22.0.1, SVG Export Plug-In . SVG Version: 6.00 Build 0)  -->
<svg version="1.1" id="Capa_1" xmlns="http://www.w3.org/2000/svg" xmlns:xlink="http://www.w3.org/1999/xlink" x="0px" y="0px"
	 viewBox="0 0 325.2 52" style="enable-background:new 0 0 325.2 52;" xml:space="preserve">
<style type="text/css">
	.st0{fill:#515151;}
	.st1{fill:url(#pop_1_);}
</style>
<g id="giga">
	<path class="st0" d="M1.8,26.7v-0.1C1.8,13.5,11.3,2,25.6,2c8,0,12.9,2.3,17.7,6.3l-3.5,4.1C36.2,9.2,32.1,7,25.4,7
		c-10.5,0-18,8.9-18,19.5v0.1c0,11.3,7.3,19.7,18.8,19.7c5.4,0,10.4-2.1,13.7-4.7V29.7H25.4v-4.8H45v18.9
		c-4.4,3.9-11.1,7.3-19.1,7.3C11,51.1,1.8,40.2,1.8,26.7z"/>
	<path class="st0" d="M57.5,2.8h5.4v47.5h-5.4V2.8z"/>
	<path class="st0" d="M74.7,26.7v-0.1c0-13,9.6-24.5,23.8-24.5c8,0,12.9,2.3,17.7,6.3l-3.5,4.1C109,9.2,105,7,98.3,7
		c-10.5,0-18,8.9-18,19.5v0.1c0,11.3,7.3,19.7,18.8,19.7c5.4,0,10.4-2.1,13.7-4.7V29.7H98.3v-4.8h19.6v18.9
		c-4.4,3.9-11.1,7.3-19.1,7.3C83.9,51.1,74.7,40.2,74.7,26.7z"/>
	<path class="st0" d="M147.5,2.5h5l21.6,47.8h-5.8l-5.6-12.5H137l-5.6,12.5h-5.5L147.5,2.5z M160.7,32.9L149.9,8.7l-10.8,24.2H160.7
		z"/>
</g>
<linearGradient id="pop_1_" gradientUnits="userSpaceOnUse" x1="180.9857" y1="26.5493" x2="323.0233" y2="26.5493">
	<stop  offset="7.073286e-02" style="stop-color:#4F2063"/>
	<stop  offset="0.283" style="stop-color:#522267"/>
	<stop  offset="0.5827" style="stop-color:#582574"/>
	<stop  offset="0.9329" style="stop-color:#612B89"/>
	<stop  offset="1" style="stop-color:#642D91"/>
</linearGradient>
<path id="pop" class="st1" d="M181,2.8h20.3c12,0,19.7,6.2,19.7,16.7v0.1c0,11.2-8.6,17.1-20.4,17.1h-6.5v13.6H181V2.8z M200.4,26.4
	c4.7,0,7.5-2.4,7.5-6.2v-0.1c0-4.1-2.8-6.2-7.6-6.2h-6.2v12.5H200.4z M225,26.7v-0.1c0-13.6,11-24.7,25.6-24.7
	c14.6,0,25.5,10.9,25.5,24.5v0.1c0,13.6-11,24.7-25.6,24.7C235.8,51.2,225,40.3,225,26.7z M262.7,26.7v-0.1
	c0-6.8-4.9-12.8-12.2-12.8c-7.2,0-12,5.8-12,12.7v0.1c0,6.8,4.9,12.8,12.1,12.8C257.9,39.4,262.7,33.5,262.7,26.7z M283,2.8h20.3
	c12,0,19.7,6.2,19.7,16.7v0.1c0,11.2-8.6,17.1-20.4,17.1h-6.5v13.6H283V2.8z M302.3,26.4c4.7,0,7.5-2.4,7.5-6.2v-0.1
	c0-4.1-2.8-6.2-7.6-6.2h-6.2v12.5H302.3z"/>
</svg>
