<?xml version="1.0" encoding="utf-8"?>
<!-- Generator: Adobe Illustrator 22.0.1, SVG Export Plug-In . SVG Version: 6.00 Build 0)  -->
<svg version="1.1" xmlns="http://www.w3.org/2000/svg" xmlns:xlink="http://www.w3.org/1999/xlink" x="0px" y="0px"
	 viewBox="0 0 238.8 31.6" style="enable-background:new 0 0 238.8 31.6;" xml:space="preserve">
<style type="text/css">
	.st0{fill:#505050;}
	.st1{fill:url(#SVGID_1_);}
</style>
<g id="giga">
	<g>
		<path class="st0" d="M0.9,15.9L0.9,15.9c0-7.7,5.6-14.5,13.9-14.5c4.7,0,7.6,1.3,10.4,3.7l-2,2.4c-2.1-1.9-4.5-3.2-8.5-3.2
			C8.5,4.3,4.1,9.5,4.1,15.7v0.1c0,6.6,4.2,11.6,11,11.6c3.2,0,6.1-1.2,8-2.8v-6.9h-8.5v-2.8h11.5v11.1c-2.6,2.3-6.5,4.2-11.2,4.2
			C6.3,30.2,0.9,23.8,0.9,15.9z"/>
		<path class="st0" d="M33.5,1.9h3.1v27.8h-3.1V1.9z"/>
		<path class="st0" d="M43.6,15.9L43.6,15.9c0-7.7,5.6-14.5,13.9-14.5c4.7,0,7.6,1.3,10.4,3.7l-2,2.4c-2.1-1.9-4.5-3.2-8.5-3.2
			c-6.2,0-10.6,5.2-10.6,11.4v0.1c0,6.6,4.2,11.6,11,11.6c3.2,0,6.1-1.2,8-2.8v-6.9h-8.5v-2.8h11.5v11.1c-2.6,2.3-6.5,4.2-11.2,4.2
			C49,30.2,43.6,23.8,43.6,15.9z"/>
		<path class="st0" d="M86.2,1.7h2.9l12.7,28h-3.4l-3.3-7.3H80l-3.3,7.3h-3.2L86.2,1.7z M93.9,19.5L87.6,5.4l-6.4,14.2H93.9z"/>
	</g>
</g>
<g id="pop">
	<linearGradient id="SVGID_1_" gradientUnits="userSpaceOnUse" x1="105.808" y1="15.8067" x2="188.9834" y2="15.8067">
		<stop  offset="7.073286e-02" style="stop-color:#500064"/>
		<stop  offset="0.2825" style="stop-color:#52006B"/>
		<stop  offset="0.5814" style="stop-color:#58007D"/>
		<stop  offset="0.9307" style="stop-color:#61009B"/>
		<stop  offset="1" style="stop-color:#6300A2"/>
	</linearGradient>
	<path class="st1" d="M105.8,1.9h11.9c7,0,11.6,3.6,11.6,9.8v0.1c0,6.6-5,10-11.9,10h-3.8v7.9h-7.7V1.9z M117.2,15.7
		c2.7,0,4.4-1.4,4.4-3.6V12c0-2.4-1.7-3.7-4.4-3.7h-3.6v7.3H117.2z M131.6,15.9L131.6,15.9c0-8.1,6.4-14.5,15-14.5
		c8.6,0,14.9,6.4,14.9,14.4v0.1c0,8-6.4,14.5-15,14.5C137.9,30.3,131.6,23.9,131.6,15.9z M153.6,15.9L153.6,15.9
		c0-4.1-2.9-7.6-7.1-7.6c-4.2,0-7,3.4-7,7.4v0.1c0,4,2.9,7.5,7.1,7.5C150.8,23.3,153.6,19.9,153.6,15.9z M165.5,1.9h11.9
		c7,0,11.6,3.6,11.6,9.8v0.1c0,6.6-5,10-11.9,10h-3.8v7.9h-7.7V1.9z M176.9,15.7c2.7,0,4.4-1.4,4.4-3.6V12c0-2.4-1.7-3.7-4.4-3.7
		h-3.6v7.3H176.9z"/>
</g>
<g id="studio">
	<g>
		<path d="M192.3,9.3l0.6-0.7c0.9,0.8,1.7,1.2,2.9,1.2c1.1,0,1.9-0.6,1.9-1.4v0c0-0.8-0.4-1.2-2.2-1.6c-1.9-0.4-2.8-1-2.8-2.4v0
			c0-1.3,1.2-2.3,2.8-2.3c1.2,0,2.1,0.3,3,1l-0.6,0.7c-0.8-0.6-1.6-0.9-2.4-0.9c-1.1,0-1.8,0.6-1.8,1.4v0c0,0.8,0.4,1.2,2.3,1.6
			c1.9,0.4,2.7,1.1,2.7,2.4v0c0,1.4-1.2,2.4-2.9,2.4C194.4,10.7,193.3,10.2,192.3,9.3z"/>
		<path d="M202.6,3h-2.8V2.1h6.6V3h-2.8v7.5h-1V3z"/>
		<path d="M208,7V2.1h0.9V7c0,1.8,1,2.8,2.6,2.8c1.5,0,2.5-0.9,2.5-2.8V2.1h0.9V7c0,2.4-1.4,3.7-3.5,3.7C209.4,10.7,208,9.4,208,7z"
			/>
		<path d="M217.3,2.1h2.9c2.6,0,4.5,1.8,4.5,4.2v0c0,2.4-1.8,4.2-4.5,4.2h-2.9V2.1z M220.2,9.7c2.1,0,3.5-1.4,3.5-3.3v0
			c0-1.9-1.4-3.3-3.5-3.3h-2v6.6H220.2z"/>
		<path d="M226.7,2.1h0.9v8.4h-0.9V2.1z"/>
		<path d="M229.8,6.4L229.8,6.4c0-2.3,1.7-4.4,4.3-4.4s4.3,2,4.3,4.3v0c0,2.3-1.7,4.3-4.3,4.3S229.8,8.7,229.8,6.4z M237.4,6.4
			L237.4,6.4c0-1.9-1.4-3.5-3.3-3.5s-3.3,1.5-3.3,3.4v0c0,1.9,1.4,3.5,3.3,3.5S237.4,8.3,237.4,6.4z"/>
	</g>
</g>
</svg>
