<?xml version="1.0" encoding="utf-8"?>
<!-- Generator: Adobe Illustrator 22.0.1, SVG Export Plug-In . SVG Version: 6.00 Build 0)  -->
<svg version="1.1" xmlns="http://www.w3.org/2000/svg" xmlns:xlink="http://www.w3.org/1999/xlink" x="0px" y="0px"
	 viewBox="0 0 189.9 188.6" style="enable-background:new 0 0 189.9 188.6;" xml:space="preserve">
<style type="text/css">
	.st0{fill:#CCCCCC;}
</style>
<g id="Capa_1">
	<g>
		<path class="st0" d="M12.7,181.3c0,2-1.6,3.5-3.5,3.5s-3.5-1.6-3.5-3.5c0-2,1.6-3.5,3.5-3.5S12.7,179.4,12.7,181.3L12.7,181.3z
			 M12.7,181.3"/>
		<path class="st0" d="M103.2,91.4c0,2-1.6,3.5-3.5,3.5c-2,0-3.5-1.6-3.5-3.5c0-2,1.6-3.5,3.5-3.5C101.6,87.9,103.2,89.5,103.2,91.4
			L103.2,91.4z M103.2,91.4"/>
		<path class="st0" d="M146,46.6c-2.8-2.8-6.6-4.4-10.6-4.4c-4,0-7.8,1.6-10.6,4.4c-5.9,5.9-5.9,15.4,0,21.3
			c2.9,2.9,6.8,4.4,10.6,4.4c3.9,0,7.7-1.5,10.6-4.4C151.9,62,151.9,52.5,146,46.6L146,46.6z M141,62.9c-3.1,3.1-8.2,3.1-11.3,0
			c-3.1-3.1-3.1-8.2,0-11.3c1.5-1.5,3.5-2.3,5.6-2.3c2.1,0,4.1,0.8,5.6,2.3C144.1,54.7,144.1,59.8,141,62.9L141,62.9z M141,62.9"/>
		<g>
			<path class="st0" d="M49.8,150c-1.7-0.9-3.9-0.2-4.7,1.6l-4.2,8.5c-1.8,3.7-5.5,6.1-9.6,6.4l-4.9,0.3c-0.8,0.1-1.4-0.4-1.6-0.6
				c-0.3-0.3-0.7-0.8-0.6-1.6l0.3-4.9c0.3-4.1,2.7-7.8,6.4-9.6l8.5-4.2c1.7-0.9,2.5-3,1.6-4.7c-0.9-1.7-3-2.5-4.7-1.6l-8.5,4.2
				c-5.9,2.9-9.9,8.9-10.3,15.5l-0.3,4.9c-0.2,2.6,0.8,5.2,2.7,7.1c1.7,1.7,4.1,2.7,6.5,2.7c0.2,0,0.4,0,0.6,0l4.9-0.3
				c6.6-0.5,12.5-4.4,15.5-10.3l4.2-8.5C52.2,153,51.5,150.8,49.8,150L49.8,150z M49.8,150"/>
			<path class="st0" d="M183.6,7.9c-1.7-1.6-3.9-2.5-6.3-2.3L174,5.8c-29.5,1.9-57.2,16.1-75.8,39.1l-7.8,9.5l-20.3-0.6
				c0,0-0.1,0-0.1,0c-16.1,0-31.2,6.3-42.6,17.6L6.6,92.2c-1,1-1.3,2.5-0.8,3.8c0.5,1.3,1.7,2.2,3.1,2.3l44,2.3l-1.8,2.2
				c-0.9,1.1-1,2.7-0.4,3.9c0.7,1.3,1.4,2.5,2.2,3.7l-10.4,12.4c-0.9,1.1-1.1,2.5-0.5,3.8c2.3,4.8,5.3,9.1,9,12.9
				c3.8,3.8,8.2,6.9,13.1,9.3c0.5,0.2,1,0.3,1.5,0.3c0.8,0,1.6-0.3,2.2-0.8c2.2-1.8,4.8-4,7.3-6.1c1.8-1.5,3.6-3,5.3-4.4
				c1,0.6,2.1,1.2,3.1,1.8c0.5,0.3,1.1,0.4,1.7,0.4c0.8,0,1.5-0.3,2.2-0.7l2.4-1.9l2.3,44.2c0.1,1.4,1,2.6,2.3,3.1
				c0.4,0.2,0.8,0.2,1.3,0.2c0.9,0,1.8-0.4,2.5-1l20.8-20.8c11.4-11.4,17.6-26.5,17.6-42.6v-19.4l8.2-6.4
				c24.6-19.1,39.5-47.8,41.1-78.9l0.1-1.7C186.1,11.8,185.2,9.5,183.6,7.9L183.6,7.9z M17.3,91.6l15.2-15.2
				c10-10,23.4-15.6,37.5-15.6l14.8,0.4L58.5,93.7L17.3,91.6z M70.7,136.7c-1.8,1.5-3.7,3.1-5.5,4.6c-3.4-1.8-6.5-4.1-9.2-6.8
				c-2.6-2.6-4.8-5.6-6.6-8.9l7.6-9.1c2.3,3.1,4.8,6,7.6,8.8c0,0,0,0,0,0l0,0c0,0,0,0,0,0c3,3,6.3,5.8,9.7,8.4
				C73.2,134.7,71.9,135.7,70.7,136.7L70.7,136.7z M129.6,120.5c0,14.2-5.5,27.6-15.6,37.6l-15.2,15.2l-2.1-41.2l32.8-25.5V120.5z
				 M178.8,15.5c-1.4,29-15.4,55.8-38.3,73.6L85,132.2c-4.6-2.7-8.9-5.9-12.8-9.5L90.9,104c1.4-1.4,1.4-3.6,0-5
				c-1.4-1.4-3.6-1.4-5,0l-18.7,18.7c-3.4-3.8-6.5-7.9-9.1-12.4l45.5-56c17.4-21.4,43.2-34.8,70.8-36.5l3.3-0.2
				c0.4,0,0.7,0.2,0.9,0.3c0.1,0.1,0.4,0.4,0.3,0.8L178.8,15.5z M178.8,15.5"/>
		</g>
	</g>
</g>
<g id="Layer_1">
</g>
</svg>
