<?xml version="1.0" encoding="utf-8"?>
<!-- Generator: Adobe Illustrator 22.0.1, SVG Export Plug-In . SVG Version: 6.00 Build 0)  -->
<svg version="1.1" id="Capa_1" xmlns="http://www.w3.org/2000/svg" xmlns:xlink="http://www.w3.org/1999/xlink" x="0px" y="0px"
	 viewBox="0 0 402.7 559.3" style="enable-background:new 0 0 402.7 559.3;" xml:space="preserve">
<style type="text/css">
	.st0{opacity:0.2;}
	.st1{fill:#FFFFFF;}
</style>
<g class="st0">
	<g>
		<path class="st1" d="M402.4,4.2L36.5,104c-13.8,3.8-17.6,21.5-6.6,30.6l170.6,140.6l-31.4,94.3c-4.6,13.7,8.5,26.9,22.3,22.3
			l94.2-31.4L402.4,502v-55.4l-88.1-107l88.1-109v-56l-121.3,150l-67.4,22.5l22.5-67.4l166.2-134.4V99.9L221.2,246.5L78.6,129
			l323.8-88.3V4.2z"/>
		<path class="st1" d="M60.5,500.4c-6.9-6.9-18-6.9-24.9,0l-24.9,24.9c-6.9,6.9-6.9,18,0,24.9c6.6,6.6,18.4,6.6,24.9,0l24.9-24.9
			C67.4,518.4,67.4,507.3,60.5,500.4z"/>
	</g>
	<path class="st1" d="M135.2,425.6c-6.9-6.9-18-6.9-24.9,0l-24.9,24.9c-6.3,6.3-6.2,18.7,0,24.9c5.9,5.9,19,5.9,24.9,0l24.9-24.9
		C142.1,443.6,142.1,432.5,135.2,425.6z"/>
</g>
</svg>
