<?xml version="1.0" encoding="utf-8"?>
<!-- Generator: Adobe Illustrator 22.0.1, SVG Export Plug-In . SVG Version: 6.00 Build 0)  -->
<svg version="1.1" xmlns="http://www.w3.org/2000/svg" xmlns:xlink="http://www.w3.org/1999/xlink" x="0px" y="0px"
	 viewBox="0 0 189.9 188.6" style="enable-background:new 0 0 189.9 188.6;" xml:space="preserve">
<style type="text/css">
	.st0{fill:#CCCCCC;}
</style>
<g id="Capa_1">
	<g>
		<path class="st0" d="M17.1,94.2c0,31.1,18.1,58.1,44.4,70.8L23.9,62.2C19.6,72,17.1,82.8,17.1,94.2z"/>
		<path class="st0" d="M148.9,90.2c0-9.7-3.5-16.5-6.5-21.7c-4-6.5-7.7-12-7.7-18.5c0-7.2,5.5-14,13.2-14c0.3,0,0.7,0,1,0.1
			c-14-12.8-32.7-20.7-53.1-20.7c-27.5,0-51.7,14.1-65.8,35.5c1.8,0.1,3.6,0.1,5.1,0.1c8.2,0,21-1,21-1c4.2-0.3,4.7,6,0.5,6.5
			c0,0-4.3,0.5-9,0.8l28.7,85.2l17.2-51.7L81.2,57.3C77,57.1,73,56.6,73,56.6c-4.2-0.2-3.7-6.7,0.5-6.5c0,0,13,1,20.7,1
			c8.2,0,21-1,21-1c4.2-0.3,4.7,6,0.5,6.5c0,0-4.3,0.5-9,0.8l28.4,84.6l7.8-26.2C146.4,104.8,148.9,97,148.9,90.2z"/>
		<path class="st0" d="M97.2,101.1l-23.6,68.6c7,2.1,14.5,3.2,22.2,3.2c9.2,0,18-1.6,26.1-4.5c-0.2-0.3-0.4-0.7-0.6-1.1L97.2,101.1z
			"/>
		<path class="st0" d="M164.9,56.5c0.3,2.5,0.5,5.2,0.5,8.1c0,8-1.5,17-6,28.2l-24,69.5c23.4-13.6,39.1-39,39.1-68
			C174.5,80.5,171,67.7,164.9,56.5z"/>
		<path class="st0" d="M95.8,2.5C45.2,2.5,4.1,43.6,4.1,94.2c0,50.6,41.2,91.7,91.7,91.7c50.6,0,91.7-41.1,91.7-91.7
			C187.6,43.6,146.4,2.5,95.8,2.5z M95.8,181.7c-48.3,0-87.5-39.3-87.5-87.5C8.3,46,47.6,6.7,95.8,6.7c48.3,0,87.5,39.3,87.5,87.5
			C183.3,142.5,144.1,181.7,95.8,181.7z"/>
	</g>
</g>
<g id="Layer_1">
</g>
</svg>
