<?xml version="1.0" encoding="utf-8"?>
<!-- Generator: Adobe Illustrator 22.0.1, SVG Export Plug-In . SVG Version: 6.00 Build 0)  -->
<svg version="1.1" xmlns="http://www.w3.org/2000/svg" xmlns:xlink="http://www.w3.org/1999/xlink" x="0px" y="0px"
	 viewBox="0 0 67.5 76.3" style="enable-background:new 0 0 67.5 76.3;" xml:space="preserve">
<style type="text/css">
	.st0{clip-path:url(#SVGID_3_);}
	.st1{clip-path:url(#SVGID_4_);fill:#004650;}
</style>
<g id="Capa_1">
</g>
<g id="Capa_2">
	<g>
		<g>
			<defs>
				<rect id="SVGID_1_" x="0.6" y="1.5" width="65.8" height="75"/>
			</defs>
			<defs>
				<path id="SVGID_2_" d="M54.4,38.7l6.8-6.7c7-6.9,7-18.3,0-25.2c-7-6.9-18.4-6.9-25.4,0l-2.5,2.4C30,4.5,24.7,1.5,18.5,1.5
					c-9.9,0-17.9,8-17.9,17.8V58c0,9.8,8,17.8,17.9,17.8c6.1,0,11.5-3,14.8-7.7l2.5,2.4c7,6.9,18.4,6.9,25.4,0c7-6.9,7-18.3,0-25.2
					L54.4,38.7L54.4,38.7z"/>
			</defs>
			<clipPath id="SVGID_3_">
				<use xlink:href="#SVGID_1_"  style="overflow:visible;"/>
			</clipPath>
			<clipPath id="SVGID_4_" class="st0">
				<use xlink:href="#SVGID_2_"  style="overflow:visible;"/>
			</clipPath>
			<rect x="-6" y="-5.1" class="st1" width="78.9" height="87.4"/>
		</g>
	</g>
</g>
</svg>
