<?xml version="1.0" encoding="utf-8"?>
<!-- Generator: Adobe Illustrator 22.0.1, SVG Export Plug-In . SVG Version: 6.00 Build 0)  -->
<svg version="1.1" xmlns="http://www.w3.org/2000/svg" xmlns:xlink="http://www.w3.org/1999/xlink" x="0px" y="0px"
	 viewBox="0 0 286 60" style="enable-background:new 0 0 286 60;" xml:space="preserve">
<style type="text/css">
	.st0{fill:#4D4D4D;}
	.st1{fill:#009BE8;}
</style>
<g id="Capa_1">
</g>
<g id="Capa_2">
	<g>
		<g>
			<path class="st0" d="M73,24.1V53H62.5V25.9c0-6-3.6-10.2-8.8-10.2c-5.9,0-9.9,4-9.9,9.5V53H33.3V25.9c0-6-3.6-10.2-8.9-10.2
				c-5.8,0-9.9,4-9.9,9.5V53H3.7V7.5h10.7v6.2c2.3-4.4,7-7.2,12.7-7.2c6.4,0,11.7,3.3,14.5,8.6c2.2-5.3,7.9-8.6,14.7-8.6
				C65.8,6.5,73,13.8,73,24.1z"/>
			<path class="st0" d="M194.7,45.2L218.8,17h-23.6V7.5H233l-0.1,7.8l-24.2,28.2h24.5V53h-38.4V45.2z"/>
			<path class="st0" d="M273.3,40l6.8,7c-4,4.2-11.9,7-18.5,7c-13,0-23.8-9.9-23.8-23.9c0-13.6,10.2-23.7,23.1-23.7
				c14.1,0,22.3,10.6,22.3,27.5H249c1.3,6.2,6.1,10.6,12.6,10.6C265.8,44.6,270.8,42.7,273.3,40z M249.1,25.8H273
				c-1.2-5.7-5.1-9.8-11.5-9.8C255.5,16,250.6,19.8,249.1,25.8z"/>
		</g>
		<g>
			<path class="st1" d="M159.8,58c-15.2,0-28.1-12.6-28.1-27.5V30c0-10.6-9.6-20-20.6-20s-20.6,9.3-20.6,20c0,2.1-1.7,3.7-3.7,3.7
				S83,32.1,83,30c0-14.9,12.9-27.5,28.1-27.5s28.1,12.6,28.1,27.5v0.5c0,10.6,9.6,20,20.6,20s20.6-9.3,20.6-20V30
				c0-2.1,1.7-3.7,3.7-3.7S188,28,188,30v0.5C188,45.4,175.1,58,159.8,58z"/>
			<path class="st1" d="M172.1,16c-1.1,0-2.2-0.5-2.9-1.4c-1.7-2.1-4.8-3.6-8.2-4c-3.9-0.4-7.8,0.7-11,3.3c-1.6,1.3-4,1-5.3-0.6
				c-1.3-1.6-1-4,0.6-5.3c4.7-3.8,10.6-5.5,16.5-4.9c5.3,0.6,10.3,3.1,13.2,6.8c1.3,1.6,1,4-0.6,5.3C173.7,15.7,172.9,16,172.1,16z"
				/>
		</g>
	</g>
</g>
</svg>
