<?xml version="1.0" encoding="utf-8"?>
<!-- Generator: Adobe Illustrator 19.0.0, SVG Export Plug-In . SVG Version: 6.00 Build 0)  -->
<svg version="1.1" id="Capa_1" xmlns="http://www.w3.org/2000/svg" xmlns:xlink="http://www.w3.org/1999/xlink" x="0px" y="0px"
	 viewBox="0 0 82.5 82.5" style="enable-background:new 0 0 82.5 82.5;" xml:space="preserve">
<style type="text/css">
	.st0{fill:#FFFFFF;}
</style>
<g id="XMLID_24_">
	<g id="XMLID_33_">
		<path id="XMLID_27_" class="st0" d="M79.5,3v76.5H3V3H79.5 M82.5,0H0v82.5h82.5V0L82.5,0z"/>
	</g>
	<path id="XMLID_241_" class="st0" d="M40.3,44.6c-5.2,0-10,0-15.1,0c0.6-1.6,1.1-2.8,1.6-4.1c2.8-7.1,5.7-14.1,8.5-21.3
		c0.6-1.4,1.2-2,2.8-2c4.6,0.1,9.3,0,14.3,0c-2.1,5.3-4.1,10.4-6.3,15.7c4.7,0,9.1,0,14.1,0c-9.7,12-19,23.5-28.4,35.1
		c-0.1,0-0.2-0.1-0.3-0.1C34.4,60.4,37.2,52.7,40.3,44.6z"/>
</g>
</svg>
