<?xml version="1.0" encoding="utf-8"?>
<!-- Generator: Adobe Illustrator 19.0.0, SVG Export Plug-In . SVG Version: 6.00 Build 0)  -->
<svg version="1.1" id="Capa_1" xmlns="http://www.w3.org/2000/svg" xmlns:xlink="http://www.w3.org/1999/xlink" x="0px" y="0px"
	 viewBox="0 0 82.5 82.5" style="enable-background:new 0 0 82.5 82.5;" xml:space="preserve">
<style type="text/css">
	.st0{fill:#3D3786;}
	.st1{fill:#FFFFFF;}
</style>
<g id="XMLID_44_">
	<rect id="XMLID_127_" class="st0" width="82.5" height="82.5"/>
	<path id="XMLID_124_" class="st1" d="M41.2,15.1c5.5,9.7,11.2,18.9,14.3,29.4c1.9,6.2-0.2,11.5-5.2,15.4c-5.1,4-10.8,4.4-16.4,1.3
		c-5.5-3-8.1-7.8-7.7-14.1c0.2-2.8,1.3-5.3,2.3-7.9C32.1,31,36.5,23.2,41.2,15.1z M31.1,44.1c-2.4,4.1-1,9.9,2.8,13.1
		c3.5,2.9,9.3,3.5,12.2,1c-4.3,0.6-8.1-0.1-11.2-2.9C31.8,52.3,30.9,48.6,31.1,44.1z"/>
</g>
</svg>
