<?xml version="1.0" encoding="utf-8"?>
<!-- Generator: Adobe Illustrator 19.0.0, SVG Export Plug-In . SVG Version: 6.00 Build 0)  -->
<svg version="1.1" id="Capa_1" xmlns="http://www.w3.org/2000/svg" xmlns:xlink="http://www.w3.org/1999/xlink" x="0px" y="0px"
	 viewBox="0 0 82.5 82.5" style="enable-background:new 0 0 82.5 82.5;" xml:space="preserve">
<style type="text/css">
	.st0{fill:#FFFFFF;}
</style>
<g id="XMLID_7_">
	<g id="XMLID_30_">
		<path id="XMLID_14_" class="st0" d="M79.5,3v76.5H3V3H79.5 M82.5,0H0v82.5h82.5V0L82.5,0z"/>
	</g>
	<g id="XMLID_95_">
		<path id="XMLID_275_" class="st0" d="M41.1,39.1c3.3-0.1,5.8,1.5,7.4,4.5c0.4,0.7,0.7,1.4,1,2.1c1,2.5,2.7,4.3,5.2,5.5
			c2.7,1.2,3.3,2.6,3.1,5.5c0,0.1,0,0.1,0,0.2c-1.3,7-2.6,7.3-8.2,5.7c-5.7-1.6-11.1-1.6-16.8,0c-5.5,1.5-7.1,1.3-8.2-5.7
			c-0.5-2.9,0.3-4.5,3-5.7c2.5-1.2,4.2-2.9,5.2-5.5c0.4-1,0.9-1.9,1.4-2.8C35.5,40.4,37.8,39.1,41.1,39.1z"/>
		<path id="XMLID_274_" class="st0" d="M54.2,26.2c-0.2,2.7-1.1,5.1-3,7C48.8,35.5,45.6,35,44,32c-1.7-3.2-1-8.3,1.5-10.9
			c2.6-2.7,6.5-2,7.9,1.5C53.9,23.7,54,25,54.2,26.2z"/>
		<path id="XMLID_273_" class="st0" d="M27.9,25.7c0.1-0.5,0.2-1.4,0.4-2.4c0.5-1.9,1.6-3.5,3.7-3.8c2.2-0.4,3.9,0.6,5.1,2.4
			c1.9,2.9,2.4,6,1.2,9.3c-1.4,3.8-5.2,4.5-7.9,1.6C28.7,30.9,28,28.7,27.9,25.7z"/>
		<path id="XMLID_270_" class="st0" d="M17.8,37.6c0-1.7,1.1-3.6,2.8-4.2c1.9-0.7,4.1,0.1,5.5,1.9c1.5,1.8,2,3.9,1.6,6.3
			c-0.7,3.7-4.4,5-7.3,2.6C18.7,42.6,17.8,40.6,17.8,37.6z"/>
		<path id="XMLID_269_" class="st0" d="M64.7,38.5c-0.8,1.7-1.5,3.5-2.6,5c-1.4,1.8-3.7,2.3-5.4,1.4c-2-1-2.8-2.8-2.5-4.8
			c0.3-1.8,1-3.6,2-5.1c1.3-1.8,3.7-2.4,5.4-1.6C63.5,34.4,64.2,36.1,64.7,38.5z"/>
	</g>
</g>
</svg>
