<?xml version="1.0" encoding="utf-8"?>
<!-- Generator: Adobe Illustrator 19.0.0, SVG Export Plug-In . SVG Version: 6.00 Build 0)  -->
<svg version="1.1" id="Capa_1" xmlns="http://www.w3.org/2000/svg" xmlns:xlink="http://www.w3.org/1999/xlink" x="0px" y="0px"
	 viewBox="0 0 82.5 82.5" style="enable-background:new 0 0 82.5 82.5;" xml:space="preserve">
<style type="text/css">
	.st0{fill:#3E318E;}
	.st1{fill:#F9FCFD;}
	.st2{fill:#FAFCFD;}
</style>
<g id="XMLID_28_">
	<rect id="XMLID_34_" class="st0" width="82.5" height="82.5"/>
	<g id="XMLID_192_">
		<path id="XMLID_261_" class="st1" d="M32.3,24.5c2.7-0.1,6,1.3,9.2,2.8c1.4,0.7,2.7,1.4,4.1,2c4.4,1.8,8.6,1.5,12.4-1.6
			c0.6-0.5,1.2-1,1.8-1.4c1.2-0.8,2.5-0.6,3.4,0.5c0.8,1,0.7,2.4-0.4,3.4c-2.3,2-4.8,3.9-7.7,4.8c-3.1,1-6.3,0.5-9.5-0.5
			c-3.3-1-6.3-2.9-9.5-4.2c-4.2-1.6-8.1-1-11.6,1.7c-0.7,0.6-1.5,1.1-2.2,1.7c-1.2,0.9-2.2,0.3-3-0.7c-0.8-1-0.8-2.2,0.1-3.1
			C22.8,26.9,26.5,24.5,32.3,24.5z"/>
		<path id="XMLID_259_" class="st2" d="M53.9,47.3c-5.4,1-10-1-14.6-3.4c-1.9-1-3.9-2-6.1-2.2c-2.2-0.2-4.5-0.2-6.5,1.1
			c-1.4,0.8-2.6,1.8-3.8,2.8c-1.3,1-2.7,0.9-3.6,0c-0.9-1-0.6-2.7,0.5-3.8c5.7-5.3,12.2-6.5,19.4-3.4c2.5,1.1,4.8,2.4,7.3,3.4
			c4.1,1.6,7.9,1.1,11.3-1.7c0.8-0.6,1.5-1.3,2.4-1.7c1.2-0.7,2.4-0.3,3.2,0.8c0.8,1.1,0.7,2.2-0.3,3.1c-2.3,2.1-5,3.7-7.8,5
			C54.8,47.5,54.4,47.5,53.9,47.3z"/>
		<path id="XMLID_258_" class="st1" d="M50.4,59.6c-3.1,0.1-6-1.1-8.8-2.5c-2.1-1-4.1-2.2-6.3-2.8c-3.7-1.1-7.2-0.7-10.3,1.7
			c-0.8,0.6-1.6,1.3-2.5,1.9c-1.2,0.8-2.4,0.6-3.3-0.3c-0.9-0.8-0.6-2.6,0.4-3.6C25,49.1,31,47.4,38,50.1c2.4,0.9,4.6,2.1,6.8,3.2
			c4.9,2.3,9.4,2.1,13.6-1.6c0.5-0.5,1.1-0.9,1.7-1.3c1.2-0.7,2.3-0.3,3.1,0.7c0.8,1,0.8,2.2-0.2,3.1C59.4,57.5,55.5,60,50.4,59.6z"
			/>
	</g>
</g>
</svg>
