<?xml version="1.0" encoding="utf-8"?>
<!-- Generator: Adobe Illustrator 19.0.0, SVG Export Plug-In . SVG Version: 6.00 Build 0)  -->
<svg version="1.1" id="Capa_1" xmlns="http://www.w3.org/2000/svg" xmlns:xlink="http://www.w3.org/1999/xlink" x="0px" y="0px"
	 viewBox="0 0 315.8 40.1" style="enable-background:new 0 0 315.8 40.1;" xml:space="preserve">
<style type="text/css">
	.st0{fill:#7677E8;}
	.st1{fill:#FFFFFF;}
</style>
<g>
	<path class="st0" d="M42,28.3l-7.7-7.7c-0.2-0.2-0.6-0.4-0.9-0.4c-0.4,0-0.7,0.1-0.9,0.4l-2.1,2.1L19.9,12.3l2.1-2.1
		c0.2-0.2,0.4-0.6,0.4-0.9c0-0.3-0.1-0.7-0.4-0.9l-7.7-7.7c-0.5-0.5-1.3-0.5-1.8,0C12.1,1,8.5,4.4,8.2,7.5
		c-0.4,4.1,3.5,10.8,9.8,17.1c6,6,12.5,9.8,16.5,9.8c0.2,0,0.4,0,0.6,0c3.1-0.3,6.5-3.9,6.9-4.3C42.5,29.6,42.5,28.8,42,28.3z
		 M34.9,31.8c-3.2,0.3-9.5-3.5-15-9c-6.3-6.3-9.3-12.3-9-15c0.1-1.2,1.4-3,2.6-4.3l5.8,5.8l-2.1,2.1c-0.2,0.2-0.4,0.6-0.4,0.9
		c0,0.4,0.1,0.7,0.4,0.9l12.3,12.3c0.5,0.5,1.4,0.5,1.9,0l2.1-2.1l5.8,5.8C38,30.3,36.2,31.7,34.9,31.8z"/>
	<g id="XMLID_1_">
		<path id="XMLID_44_" class="st1" d="M86.3,18.5c0,6.3-1.5,12.9-8.2,12.9s-8.2-6.6-8.2-12.9c0-6.3,1.5-12.9,8.2-12.9
			S86.3,12.2,86.3,18.5z M72.3,18.5c0,3.7,0.5,10.8,5.7,10.8c5.3,0,5.7-7.1,5.7-10.8S83.3,7.7,78,7.7C72.8,7.7,72.3,14.8,72.3,18.5z
			"/>
		<path id="XMLID_47_" class="st1" d="M94.9,18c-2.9-0.3-5-2.8-5-5.7c0-4.6,4.1-6.7,8.1-6.7s8.1,2.1,8.1,6.7c0,3-2.1,5.1-5,5.7v0
			c3.3,0.9,5.3,2.9,5.3,6.2c0,5-4.3,7.3-8.4,7.3c-4.2,0-8.4-2.3-8.4-7.3C89.5,21,91.7,18.7,94.9,18L94.9,18z M97.9,29.3
			c3.1,0,5.9-1.6,5.9-5.1S101,19,97.9,19S92,20.6,92,24.2S94.8,29.3,97.9,29.3z M97.9,16.9c3.3,0,5.7-1.6,5.7-4.7
			c0-3.3-3-4.7-5.7-4.7c-2.8,0-5.7,1.4-5.7,4.7C92.2,15.3,94.6,16.9,97.9,16.9z"/>
		<path id="XMLID_51_" class="st1" d="M126.1,18.5c0,6.3-1.5,12.9-8.2,12.9s-8.2-6.6-8.2-12.9c0-6.3,1.5-12.9,8.2-12.9
			S126.1,12.2,126.1,18.5z M112.1,18.5c0,3.7,0.5,10.8,5.7,10.8c5.3,0,5.7-7.1,5.7-10.8s-0.5-10.8-5.7-10.8
			C112.6,7.7,112.1,14.8,112.1,18.5z"/>
		<path id="XMLID_54_" class="st1" d="M146.7,18.5c0,6.3-1.5,12.9-8.2,12.9s-8.2-6.6-8.2-12.9c0-6.3,1.5-12.9,8.2-12.9
			S146.7,12.2,146.7,18.5z M132.7,18.5c0,3.7,0.5,10.8,5.7,10.8c5.3,0,5.7-7.1,5.7-10.8s-0.5-10.8-5.7-10.8
			C133.2,7.7,132.7,14.8,132.7,18.5z"/>
		<path id="XMLID_57_" class="st1" d="M148.9,20.3h9v2.1h-9V20.3z"/>
		<path id="XMLID_59_" class="st1" d="M160.1,30.9v-2.4c3.2-2.9,12.7-11.9,12.7-16.3c0-2.9-2.3-4.4-5-4.4c-3,0-5,2-5,4.9h-2.5
			c0-4.4,3.3-7.1,7.6-7.1c4,0,7.4,2.1,7.4,6.4c0,5.8-8.6,13.1-12.5,16.7h12.8v2.1H160.1z"/>
		<path id="XMLID_61_" class="st1" d="M196.2,11.9h-2.5c-0.1-2.6-2.2-4.2-4.7-4.2c-5.9,0-6.6,6.5-6.6,11.1h0.1c1.1-2.7,3.6-4,6.5-4
			c4.9,0,7.6,3.5,7.6,8.2s-2.9,8.4-7.8,8.4c-6.9,0-8.9-5.7-8.9-11.7c0-6.3,1-14.2,9-14.2C192.9,5.6,196.1,7.6,196.2,11.9z
			 M182.8,23.3c0,3.1,2.4,5.9,5.6,5.9c3.6,0,5.7-2.6,5.7-6.1c0-3.3-1.5-6.4-5.2-6.4C184.9,16.8,182.8,19.7,182.8,23.3z"/>
		<path id="XMLID_64_" class="st1" d="M210.6,25.1h-11.6v-2.3l10.9-16.7h3.1v17.1h4v1.9h-4v5.8h-2.3V25.1z M210.6,8.5L210.6,8.5
			l-9.7,14.7h9.7V8.5z"/>
		<path id="XMLID_67_" class="st1" d="M218.5,20.3h9v2.1h-9V20.3z"/>
		<path id="XMLID_69_" class="st1" d="M245.6,8.2L236,30.9h-2.7l9.9-22.6h-13.3V6.1h15.8V8.2z"/>
		<path id="XMLID_71_" class="st1" d="M265.5,8.2l-9.6,22.7h-2.7l9.9-22.6h-13.3V6.1h15.8V8.2z"/>
		<path id="XMLID_73_" class="st1" d="M271.1,6.1h13.6v2.1h-11.4l-0.4,8.8l0.1,0.1c1.4-1.6,3.2-2.6,5.4-2.6c4.7,0,7.5,3.8,7.5,8.3
			c0,4.8-3,8.6-7.9,8.6c-4.2,0-7.9-1.9-8-6.6h2.5c0.1,3,2.4,4.5,5.3,4.5c3.9,0,5.7-3,5.7-6.5s-1.8-6-5.5-6c-2.4,0-4.5,1.4-5,3.8
			h-2.4L271.1,6.1z"/>
		<path id="XMLID_75_" class="st1" d="M289.5,30.9v-2.4c3.2-2.9,12.7-11.9,12.7-16.3c0-2.9-2.3-4.4-5-4.4c-3,0-5,2-5,4.9h-2.5
			c0-4.4,3.3-7.1,7.6-7.1c4,0,7.4,2.1,7.4,6.4c0,5.8-8.6,13.1-12.5,16.7H305v2.1H289.5z"/>
	</g>
</g>
</svg>
