<?xml version="1.0" encoding="utf-8"?>
<!-- Generator: Adobe Illustrator 19.0.0, SVG Export Plug-In . SVG Version: 6.00 Build 0)  -->
<svg version="1.1" id="Capa_1" xmlns="http://www.w3.org/2000/svg" xmlns:xlink="http://www.w3.org/1999/xlink" x="0px" y="0px"
	 viewBox="-336 260.9 285.2 40.1" style="enable-background:new -336 260.9 285.2 40.1;" xml:space="preserve">
<style type="text/css">
	.st0{enable-background:new    ;}
	.st1{fill:#FFFFFF;}
	.st2{fill:#7677E8;}
</style>
<g id="XMLID_1_">
	<g id="XMLID_3_">
		<g id="XMLID_44_" class="st0">
			<path class="st1" d="M-264.1,291.3h-2.1v-13.9c0-1.4-0.1-2.8-0.2-4h2.2l0.1,2.6h0.1c0.6-1.8,2.3-3.1,4-3.2c0.7,0,1.4,0,2.1,0v2.1
				c-0.4,0-0.9-0.1-1.3-0.1c-3.2,0-4.9,2.3-4.9,5.7V291.3z"/>
			<path class="st1" d="M-253.1,282.8c0.1,3.8,1.8,7,6.2,7c2.5,0,4.7-1.8,5.2-4.3h2.3c-1.1,4.3-3.8,6.3-8.1,6.3
				c-5.4,0-7.9-4.6-7.9-9.5c0-4.9,2.7-9.5,8-9.5c6,0,8.2,4.4,8.2,10H-253.1z M-241.5,280.9c-0.3-3.5-2.1-6.1-5.8-6.1
				c-3.5,0-5.4,2.9-5.7,6.1H-241.5z"/>
			<path class="st1" d="M-235.1,273.4l6.2,15l6-15h2.4l-7.1,18h-2.4l-7.3-18H-235.1z"/>
			<path class="st1" d="M-202.5,282.3c0,4.7-2.6,9.5-8.4,9.5s-8.4-4.8-8.4-9.5c0-4.7,2.6-9.5,8.4-9.5S-202.5,277.6-202.5,282.3z
				 M-210.9,274.8c-4.3,0-6,4.2-6,7.5c0,3.3,1.7,7.5,6,7.5s6-4.2,6-7.5C-204.8,279-206.5,274.8-210.9,274.8z"/>
			<path class="st1" d="M-195.9,291.3h-2.1v-25.8h2.1V291.3z"/>
			<path class="st1" d="M-178.1,273.4h2.1v13.9c0,1.4,0.1,2.8,0.2,4h-2.2l-0.1-2.6l-0.1-0.1c-1.3,2.2-3.3,3.3-5.6,3.3
				c-5.9,0-6.3-5.2-6.3-7.3v-11.2h2.1V285c0,3.1,1.8,4.9,4.7,4.9c3.5,0,5.2-3,5.2-6.2V273.4z"/>
			<path class="st1" d="M-158.9,278.9c-0.2-2.8-1.9-4.1-4.9-4.1c-3.3,0-5.3,3.4-5.3,7.5c0,4.1,2,7.6,5.3,7.6c2.8,0,4.7-1.7,4.9-4.2
				h2.3c-0.6,4.1-2.9,6.2-7,6.2c-5.4,0-7.9-4.6-7.9-9.5c0-4.9,2.7-9.5,8-9.5c3.7,0,6.7,2.2,6.9,6H-158.9z"/>
			<path class="st1" d="M-150,268.2h-2.5v-2.7h2.5V268.2z M-150.1,273.4v18h-2.1v-18H-150.1z"/>
			<path class="st1" d="M-128.9,282.3c0,4.7-2.6,9.5-8.4,9.5c-5.7,0-8.4-4.8-8.4-9.5c0-4.7,2.6-9.5,8.4-9.5
				C-131.6,272.8-128.9,277.6-128.9,282.3z M-137.3,274.8c-4.3,0-6,4.2-6,7.5c0,3.3,1.7,7.5,6,7.5c4.3,0,6-4.2,6-7.5
				C-131.2,279-133,274.8-137.3,274.8z"/>
			<path class="st1" d="M-122.3,291.3h-2.1v-13.9c0-1.4-0.1-2.8-0.2-4h2.2l0.1,2.6l0.1,0.1c1.3-2.2,3.3-3.3,5.6-3.3
				c5.9,0,6.3,5.2,6.3,7.3v11.2h-2.1v-11.6c0-3.1-1.8-4.9-4.7-4.9c-3.5,0-5.2,3-5.2,6.2V291.3z"/>
			<path class="st1" d="M-102.8,298.2h-2.1v-20.8c0-1.4-0.1-2.8-0.2-4h2.2l0.1,2.6l0.1,0.1c1.3-2.1,3.8-3.3,6.2-3.3
				c5.3,0,7.4,4.8,7.4,9.4c0,4.5-2,9.6-7.3,9.6c-2.6,0-4.8-1.2-6.3-3.3h-0.1V298.2z M-96.7,289.9c4.1,0,5.2-4.5,5.2-7.9
				c0-3.4-1.4-7.2-5.5-7.2c-4.2,0-5.8,3.5-5.8,7.1C-102.8,286-101.3,289.9-96.7,289.9z"/>
			<path class="st1" d="M-82.5,291.3h-2.1v-25.8h2.1V291.3z"/>
			<path class="st1" d="M-66.6,278.7c-0.2-2.9-1.7-3.9-4.3-3.9c-2.3,0-4.1,0.7-4.4,3.1h-2.3c0.5-3.7,3.3-5.1,6.7-5.1
				c4,0,6.4,1.8,6.4,5.9v8.5c0,1.4,0.1,2.8,0.2,4h-2.2l-0.1-2.6h-0.1l-0.1,0.3c-0.8,1.5-3.2,2.9-5.6,2.9c-3.3,0-6-2-6-5.5
				c0-2.4,1.5-4.3,3.6-5.2c2.4-1,5.5-0.7,8.1-0.8V278.7z M-71.9,289.9c4.7,0,5.6-3.9,5.4-7.6c-3,0.1-9.4-0.5-9.4,4
				C-76,288.8-74.1,289.9-71.9,289.9z"/>
		</g>
	</g>
	<g>
		<path id="XMLID_2_" class="st2" d="M-313.2,297.3c15.2,0,23.5-12.6,23.5-23.5c0-0.4,0-0.7,0-1.1c1.6-1.2,3-2.6,4.1-4.3
			c-1.5,0.7-3.1,1.1-4.8,1.3c1.7-1,3-2.6,3.6-4.6c-1.6,0.9-3.4,1.6-5.3,2c-1.5-1.6-3.7-2.6-6-2.6c-4.6,0-8.3,3.7-8.3,8.3
			c0,0.6,0.1,1.3,0.2,1.9c-6.9-0.3-13-3.6-17.1-8.6c-0.7,1.2-1.1,2.6-1.1,4.2c0,2.9,1.5,5.4,3.7,6.9c-1.4,0-2.6-0.4-3.7-1v0.1
			c0,4,2.9,7.4,6.6,8.1c-0.7,0.2-1.4,0.3-2.2,0.3c-0.5,0-1.1-0.1-1.6-0.1c1.1,3.3,4.1,5.7,7.7,5.7c-2.8,2.2-6.4,3.5-10.3,3.5
			c-0.7,0-1.3,0-2-0.1C-322.2,296-317.9,297.3-313.2,297.3"/>
	</g>
</g>
</svg>
