<?xml version="1.0" encoding="utf-8"?>
<!-- Generator: Adobe Illustrator 19.0.0, SVG Export Plug-In . SVG Version: 6.00 Build 0)  -->
<svg version="1.1" id="Capa_1" xmlns="http://www.w3.org/2000/svg" xmlns:xlink="http://www.w3.org/1999/xlink" x="0px" y="0px"
	 viewBox="0 0 285.2 40.1" style="enable-background:new 0 0 285.2 40.1;" xml:space="preserve">
<style type="text/css">
	.st0{fill:#7677E8;}
	.st1{fill:#FFFFFF;}
</style>
<g id="XMLID_1_">
	<g>
		<path class="st0" d="M33.9,4.2H19.7C14.9,4.2,11,8.1,11,13v14.2c0,4.8,3.9,8.7,8.7,8.7h14.2c4.8,0,8.7-3.9,8.7-8.7V13
			C42.6,8.1,38.7,4.2,33.9,4.2L33.9,4.2z M39.8,27.1c0,3.3-2.7,5.9-5.9,5.9H19.7c-3.3,0-5.9-2.7-5.9-5.9V13c0-3.3,2.7-5.9,5.9-5.9
			h14.2c3.3,0,5.9,2.7,5.9,5.9V27.1z M39.8,27.1"/>
		<path class="st0" d="M26.8,11.9c-4.5,0-8.2,3.7-8.2,8.2c0,4.5,3.7,8.2,8.2,8.2c4.5,0,8.2-3.7,8.2-8.2
			C34.9,15.6,31.3,11.9,26.8,11.9L26.8,11.9z M26.8,25.4c-2.9,0-5.3-2.4-5.3-5.3c0-2.9,2.4-5.3,5.3-5.3s5.3,2.4,5.3,5.3
			C32.1,23,29.7,25.4,26.8,25.4L26.8,25.4z M26.8,25.4"/>
		<path class="st0" d="M35.3,9.5c-0.5,0-1.1,0.2-1.5,0.6c-0.4,0.4-0.6,0.9-0.6,1.5c0,0.5,0.2,1.1,0.6,1.5c0.4,0.4,0.9,0.6,1.5,0.6
			c0.5,0,1.1-0.2,1.5-0.6c0.4-0.4,0.6-0.9,0.6-1.5c0-0.5-0.2-1.1-0.6-1.5C36.4,9.7,35.8,9.5,35.3,9.5L35.3,9.5z M35.3,9.5"/>
	</g>
	<g id="XMLID_2_">
		<path id="XMLID_38_" class="st1" d="M71.8,30.4h-2.1V16.5c0-1.4-0.1-2.8-0.2-4h2.2l0.1,2.6h0.1c0.6-1.8,2.3-3.1,4-3.2
			c0.7,0,1.4,0,2.1,0V14c-0.4,0-0.9-0.1-1.3-0.1c-3.2,0-4.9,2.3-4.9,5.7V30.4z"/>
		<path id="XMLID_40_" class="st1" d="M82.8,21.9c0.1,3.8,1.8,7,6.2,7c2.5,0,4.7-1.8,5.2-4.3h2.3C95.4,29,92.7,31,88.4,31
			c-5.4,0-7.9-4.6-7.9-9.5c0-4.9,2.7-9.5,8-9.5c6,0,8.2,4.4,8.2,10H82.8z M94.4,20c-0.3-3.5-2.1-6.1-5.8-6.1c-3.5,0-5.4,2.9-5.7,6.1
			H94.4z"/>
		<path id="XMLID_43_" class="st1" d="M100.8,12.5l6.2,15l6-15h2.4l-7.1,18h-2.4l-7.3-18H100.8z"/>
		<path id="XMLID_45_" class="st1" d="M133.4,21.4c0,4.7-2.6,9.5-8.4,9.5s-8.4-4.8-8.4-9.5c0-4.7,2.6-9.5,8.4-9.5
			S133.4,16.7,133.4,21.4z M125,13.9c-4.3,0-6,4.2-6,7.5c0,3.3,1.7,7.5,6,7.5s6-4.2,6-7.5C131.1,18.1,129.4,13.9,125,13.9z"/>
		<path id="XMLID_48_" class="st1" d="M140,30.4h-2.1V4.6h2.1V30.4z"/>
		<path id="XMLID_50_" class="st1" d="M157.8,12.5h2.1v13.9c0,1.4,0.1,2.8,0.2,4h-2.2l-0.1-2.6l-0.1-0.1c-1.3,2.2-3.3,3.3-5.6,3.3
			c-5.9,0-6.3-5.2-6.3-7.3V12.5h2.1v11.6c0,3.1,1.8,4.9,4.7,4.9c3.5,0,5.2-3,5.2-6.2V12.5z"/>
		<path id="XMLID_52_" class="st1" d="M177,18c-0.2-2.8-1.9-4.1-4.9-4.1c-3.3,0-5.3,3.4-5.3,7.5c0,4.1,2,7.6,5.3,7.6
			c2.8,0,4.7-1.7,4.9-4.2h2.3c-0.6,4.1-2.9,6.2-7,6.2c-5.4,0-7.9-4.6-7.9-9.5c0-4.9,2.7-9.5,8-9.5c3.7,0,6.7,2.2,6.9,6H177z"/>
		<path id="XMLID_54_" class="st1" d="M185.9,7.3h-2.5V4.6h2.5V7.3z M185.8,12.5v18h-2.1v-18H185.8z"/>
		<path id="XMLID_57_" class="st1" d="M207,21.4c0,4.7-2.6,9.5-8.4,9.5s-8.4-4.8-8.4-9.5c0-4.7,2.6-9.5,8.4-9.5S207,16.7,207,21.4z
			 M198.6,13.9c-4.3,0-6,4.2-6,7.5c0,3.3,1.7,7.5,6,7.5s6-4.2,6-7.5C204.7,18.1,202.9,13.9,198.6,13.9z"/>
		<path id="XMLID_60_" class="st1" d="M213.6,30.4h-2.1V16.5c0-1.4-0.1-2.8-0.2-4h2.2l0.1,2.6l0.1,0.1c1.3-2.2,3.3-3.3,5.6-3.3
			c5.9,0,6.3,5.2,6.3,7.3v11.2h-2.1V18.8c0-3.1-1.8-4.9-4.7-4.9c-3.5,0-5.2,3-5.2,6.2V30.4z"/>
		<path id="XMLID_62_" class="st1" d="M233.1,37.3H231V16.5c0-1.4-0.1-2.8-0.2-4h2.2l0.1,2.6l0.1,0.1c1.3-2.1,3.8-3.3,6.2-3.3
			c5.3,0,7.4,4.8,7.4,9.4c0,4.5-2,9.6-7.3,9.6c-2.6,0-4.8-1.2-6.3-3.3h-0.1V37.3z M239.2,29c4.1,0,5.2-4.5,5.2-7.9
			c0-3.4-1.4-7.2-5.5-7.2c-4.2,0-5.8,3.5-5.8,7.1C233.1,25.1,234.5,29,239.2,29z"/>
		<path id="XMLID_65_" class="st1" d="M253.4,30.4h-2.1V4.6h2.1V30.4z"/>
		<path id="XMLID_67_" class="st1" d="M269.3,17.8c-0.2-2.9-1.7-3.9-4.3-3.9c-2.3,0-4.1,0.7-4.4,3.1h-2.3c0.5-3.7,3.3-5.1,6.7-5.1
			c4,0,6.4,1.8,6.4,5.9v8.5c0,1.4,0.1,2.8,0.2,4h-2.2l-0.1-2.6h-0.1l-0.1,0.3c-0.8,1.5-3.2,2.9-5.6,2.9c-3.3,0-6-2-6-5.5
			c0-2.4,1.5-4.3,3.6-5.2c2.4-1,5.5-0.7,8.1-0.8V17.8z M264,29c4.7,0,5.6-3.9,5.4-7.6c-3,0.1-9.4-0.5-9.4,4
			C259.9,27.9,261.8,29,264,29z"/>
	</g>
</g>
</svg>
