<?xml version="1.0" encoding="utf-8"?>
<!-- Generator: Adobe Illustrator 19.0.0, SVG Export Plug-In . SVG Version: 6.00 Build 0)  -->
<svg version="1.1" id="Capa_1" xmlns="http://www.w3.org/2000/svg" xmlns:xlink="http://www.w3.org/1999/xlink" x="0px" y="0px"
	 viewBox="0 0 1920 150.8" style="enable-background:new 0 0 1920 150.8;" xml:space="preserve">
<style type="text/css">
	.st0{fill:#3D3786;}
	.st1{fill:#FFFFFF;}
	.st2{fill:#CE412A;}
</style>
<rect id="XMLID_482_" x="0.5" y="0" class="st0" width="1919.5" height="150.8"/>
<g id="XMLID_277_">
	<g id="XMLID_455_">
		<path id="XMLID_462_" class="st1" d="M129.1,74.7c0,13.6-10.8,24.8-24.4,25.2c0.2-0.5,0.5-1.1,0.7-1.6c1-2.6,1.6-5.5,1.6-8.5
			c0-0.4,0-0.7,0-1.1c-0.1-1.8-0.4-3.6-0.8-5.3c0.4,0,0.7,0,1.1,0c6.7,0,12.1-5.4,12.1-12.1c0-6.7-5.4-12.1-12.1-12.1
			c-1.5,0-2.9,0.3-4.2,0.8c0-0.2,0-0.4,0-0.5c0-4.1-2.4-7.5-5.8-9.1c2.2-0.6,4.4-0.9,6.8-0.9C117.8,49.5,129.1,60.8,129.1,74.7z"/>
		<path id="XMLID_461_" class="st1" d="M99.4,77.6c-0.1,0-0.1,0-0.2,0c-8.1,1.1-14.4,8-14.4,16.4c0,3.9,1.4,7.5,3.7,10.4
			c-8.4-2.4-14.6-10.2-14.6-19.4c0-6.6,3.2-12.5,8.1-16.1c0,0,0,0,0,0C89.1,69,95.4,72.4,99.4,77.6z"/>
		<circle id="XMLID_458_" class="st1" cx="106.8" cy="70" r="3.2"/>
		<circle id="XMLID_457_" class="st2" cx="92.3" cy="60.2" r="9.4"/>
		<path id="XMLID_456_" class="st1" d="M103.8,91.3c0,1.5-0.2,3.1-0.5,4.5v0l-1.4,3.4c0,0,0,0,0,0c-6.4-0.6-14.8-2.7-13.8-9.6
			c0.6-4.6,3.6-8.4,8.2-8.6h0c5.3-0.4,7.5,4.8,7.4,9.3C103.8,90.7,103.8,91,103.8,91.3z"/>
	</g>
	<g id="XMLID_278_">
		<g id="XMLID_298_">
			<g id="XMLID_578_">
				<path id="XMLID_644_" class="st1" d="M151.2,103.9h2.6c0.8,0,2.1,0.1,2.1,2.3c0,1.9-0.6,2.7-2.2,2.7H152v4.3h-0.8V103.9z
					 M152,108.2h1.5c0.9,0,1.4-0.4,1.4-1.9c0-1.6-0.7-1.7-1.4-1.7H152V108.2z"/>
				<path id="XMLID_641_" class="st1" d="M160,103.9l2.9,9.3H162l-0.7-2.5h-3.7l-0.7,2.5H156l2.9-9.3H160z M161,110.1l-1.6-5.3h0
					l-1.6,5.3H161z"/>
				<path id="XMLID_638_" class="st1" d="M165.1,108.7v4.5h-0.8v-9.3h2.6c1.8,0,2.2,0.6,2.2,2.2c0,1.2-0.2,1.9-1.4,2.2v0
					c1.3,0.3,1.4,0.4,1.4,3.8c0,0.4,0.1,0.7,0.1,1.1h-0.8c-0.1-0.3-0.1-1.8-0.1-2.3c0-0.4,0.3-2.2-1.5-2.2H165.1z M165.1,108.1h1.3
					c1.2,0,1.8-0.3,1.8-1.9c0-1.3-0.5-1.5-1.5-1.5h-1.7V108.1z"/>
				<path id="XMLID_636_" class="st1" d="M172.6,104.6h-2.3v-0.7h5.4v0.7h-2.3v8.6h-0.8V104.6z"/>
				<path id="XMLID_634_" class="st1" d="M178.1,103.9v9.3h-0.8v-9.3H178.1z"/>
				<path id="XMLID_631_" class="st1" d="M180.4,103.9h2.5c2.6,0,2.9,1.5,2.9,4.7c0,3.1-0.5,4.6-3.3,4.6h-2.1V103.9z M181.2,112.6h1
					c2.5,0,2.7-0.7,2.7-4.5c0-2.7-0.4-3.4-2.7-3.4h-1.1V112.6z"/>
				<path id="XMLID_628_" class="st1" d="M190.5,103.8c2.8,0,2.8,2.3,2.8,4.8c0,2.5,0,4.8-2.8,4.8c-2.8,0-2.8-2.3-2.8-4.8
					C187.7,106.1,187.7,103.8,190.5,103.8z M190.5,112.7c2,0,2-1.7,2-4.1s0-4.1-2-4.1c-2,0-2,1.7-2,4.1S188.5,112.7,190.5,112.7z"/>
				<path id="XMLID_625_" class="st1" d="M198.4,103.9h2.6c0.8,0,2.1,0.1,2.1,2.3c0,1.9-0.6,2.7-2.2,2.7h-1.6v4.3h-0.8V103.9z
					 M199.2,108.2h1.5c0.9,0,1.4-0.4,1.4-1.9c0-1.6-0.7-1.7-1.4-1.7h-1.5V108.2z"/>
				<path id="XMLID_622_" class="st1" d="M207.2,103.8c2.8,0,2.8,2.3,2.8,4.8c0,2.5,0,4.8-2.8,4.8c-2.8,0-2.8-2.3-2.8-4.8
					C204.4,106.1,204.4,103.8,207.2,103.8z M207.2,112.7c2,0,2-1.7,2-4.1s0-4.1-2-4.1c-2,0-2,1.7-2,4.1S205.3,112.7,207.2,112.7z"/>
				<path id="XMLID_619_" class="st1" d="M212.8,108.7v4.5H212v-9.3h2.6c1.8,0,2.2,0.6,2.2,2.2c0,1.2-0.2,1.9-1.4,2.2v0
					c1.3,0.3,1.4,0.4,1.4,3.8c0,0.4,0.1,0.7,0.1,1.1h-0.8c-0.1-0.3-0.1-1.8-0.1-2.3c0-0.4,0.3-2.2-1.5-2.2H212.8z M212.8,108.1h1.3
					c1.2,0,1.8-0.3,1.8-1.9c0-1.3-0.5-1.5-1.5-1.5h-1.7V108.1z"/>
				<path id="XMLID_617_" class="st1" d="M222,113.3v-9.3h0.8v8.6h3.1v0.7H222z"/>
				<path id="XMLID_614_" class="st1" d="M230.5,103.9l2.9,9.3h-0.9l-0.7-2.5h-3.7l-0.7,2.5h-0.8l2.9-9.3H230.5z M231.6,110.1
					l-1.6-5.3h0l-1.6,5.3H231.6z"/>
				<path id="XMLID_612_" class="st1" d="M238,113.3v-9.3h0.8v8.6h3.1v0.7H238z"/>
				<path id="XMLID_610_" class="st1" d="M244.3,103.9v9.3h-0.8v-9.3H244.3z"/>
				<path id="XMLID_606_" class="st1" d="M246.6,113.3v-9.3h2.6c1.5,0,2.2,0.6,2.2,2.2c0,1.1-0.2,1.9-1.4,2.2v0
					c1.2,0.3,1.5,1.1,1.5,2.2c0,1.7-0.8,2.6-2.4,2.6H246.6z M249,108.1c1.2,0,1.6-0.8,1.6-1.9c0-1.5-0.9-1.6-1.5-1.6h-1.6v3.4H249z
					 M247.4,112.6h1.3c1.4,0,2-0.5,2-1.8c0-0.8-0.2-1.9-1.7-1.9h-1.7V112.6z"/>
				<path id="XMLID_604_" class="st1" d="M257.6,103.9v0.7h-3.4v3.5h3.2v0.7h-3.2v3.7h3.5v0.7h-4.3v-9.3H257.6z"/>
				<path id="XMLID_601_" class="st1" d="M260.2,108.7v4.5h-0.8v-9.3h2.6c1.8,0,2.2,0.6,2.2,2.2c0,1.2-0.2,1.9-1.4,2.2v0
					c1.3,0.3,1.4,0.4,1.4,3.8c0,0.4,0.1,0.7,0.1,1.1h-0.8c-0.1-0.3-0.1-1.8-0.1-2.3c0-0.4,0.3-2.2-1.5-2.2H260.2z M260.2,108.1h1.3
					c1.2,0,1.8-0.3,1.8-1.9c0-1.3-0.5-1.5-1.5-1.5h-1.7V108.1z"/>
				<path id="XMLID_599_" class="st1" d="M267.7,104.6h-2.3v-0.7h5.4v0.7h-2.3v8.6h-0.8V104.6z"/>
				<path id="XMLID_596_" class="st1" d="M274.8,103.9l2.9,9.3h-0.9l-0.7-2.5h-3.7l-0.7,2.5h-0.8l2.9-9.3H274.8z M275.9,110.1
					l-1.6-5.3h0l-1.6,5.3H275.9z"/>
				<path id="XMLID_593_" class="st1" d="M279.2,103.9h2.5c2.6,0,2.9,1.5,2.9,4.7c0,3.1-0.5,4.6-3.3,4.6h-2.1V103.9z M280,112.6h1
					c2.5,0,2.7-0.7,2.7-4.5c0-2.7-0.4-3.4-2.7-3.4H280V112.6z"/>
				<path id="XMLID_590_" class="st1" d="M293,103.9l2.9,9.3H295l-0.7-2.5h-3.7l-0.7,2.5h-0.8l2.9-9.3H293z M294,110.1l-1.6-5.3h0
					l-1.6,5.3H294z"/>
				<path id="XMLID_588_" class="st1" d="M297.4,113.3v-9.3h1.3l3.8,8.2l0,0v-8.2h0.8v9.3H302l-3.8-8.3l0,0v8.3H297.4z"/>
				<path id="XMLID_586_" class="st1" d="M306.4,103.9v9.3h-0.8v-9.3H306.4z"/>
				<path id="XMLID_584_" class="st1" d="M308.7,113.3v-9.3h1.4l2.8,8.4h0l2.7-8.4h1.3v9.3h-0.8v-8.5h0l-2.7,8.5h-1l-2.8-8.5h0v8.5
					H308.7z"/>
				<path id="XMLID_581_" class="st1" d="M322.2,103.9l2.9,9.3h-0.9l-0.7-2.5h-3.7l-0.7,2.5h-0.8l2.9-9.3H322.2z M323.3,110.1
					l-1.6-5.3h0l-1.6,5.3H323.3z"/>
				<path id="XMLID_579_" class="st1" d="M326.5,113.3v-9.3h0.8v8.6h3.1v0.7H326.5z"/>
			</g>
		</g>
		<g id="XMLID_279_">
			<path id="XMLID_291_" class="st1" d="M153.7,37.3h26.4c17.2,0,24.2,5.9,24.2,17.5c0,6.3-3.2,16.6-22.3,16.6h-16.2v20.3h-12.2
				V37.3z M165.9,62.5h14.2c6.5,0,11.6-1.9,11.6-7.7c0-7.4-6.8-8.5-13.8-8.5h-12V62.5z"/>
			<path id="XMLID_286_" class="st1" d="M213.4,37.3h12.2v45.4h29.9v8.9h-42.1V37.3z"/>
			<path id="XMLID_280_" class="st1" d="M292.4,37.3h15.3l27.8,54.3H321l-6.2-12.2h-31.3l-5.7,12.2h-13.1L292.4,37.3z M310.4,70.6
				L299.2,47l-11.3,23.6H310.4z"/>
		</g>
	</g>
</g>
</svg>
