<?xml version="1.0" encoding="utf-8"?>
<!-- Generator: Adobe Illustrator 19.0.0, SVG Export Plug-In . SVG Version: 6.00 Build 0)  -->
<svg version="1.1" id="Capa_1" xmlns="http://www.w3.org/2000/svg" xmlns:xlink="http://www.w3.org/1999/xlink" x="0px" y="0px"
	 viewBox="0 437.2 1920 178.8" style="enable-background:new 0 437.2 1920 178.8;" xml:space="preserve">
<style type="text/css">
	.st0{fill:#3D3786;}
	.st1{fill:#FFFFFF;}
	.st2{fill:#CE412A;}
</style>
<rect id="XMLID_482_" x="0.5" y="437.2" class="st0" width="1919.5" height="178.8"/>
<g id="XMLID_277_">
	<g id="XMLID_455_">
		<path id="XMLID_462_" class="st1" d="M129.1,526c0,13.6-10.8,24.8-24.4,25.2c0.2-0.5,0.5-1.1,0.7-1.6c1-2.6,1.6-5.5,1.6-8.5
			c0-0.4,0-0.7,0-1.1c-0.1-1.8-0.4-3.6-0.8-5.3c0.4,0,0.7,0,1.1,0c6.7,0,12.1-5.4,12.1-12.1c0-6.7-5.4-12.1-12.1-12.1
			c-1.5,0-2.9,0.3-4.2,0.8c0-0.2,0-0.4,0-0.5c0-4.1-2.4-7.5-5.8-9.1c2.2-0.6,4.4-0.9,6.8-0.9C117.8,500.8,129.1,512,129.1,526z"/>
		<path id="XMLID_461_" class="st1" d="M99.4,528.9c-0.1,0-0.1,0-0.2,0c-8.1,1.1-14.4,8-14.4,16.4c0,3.9,1.4,7.5,3.7,10.4
			c-8.4-2.4-14.6-10.2-14.6-19.4c0-6.6,3.2-12.5,8.1-16.1l0,0C89.1,520.3,95.4,523.7,99.4,528.9z"/>
		<circle id="XMLID_458_" class="st1" cx="106.8" cy="521.3" r="3.2"/>
		<circle id="XMLID_457_" class="st2" cx="92.3" cy="511.5" r="9.4"/>
		<path id="XMLID_456_" class="st1" d="M103.8,542.5c0,1.5-0.2,3.1-0.5,4.5l0,0l-1.4,3.4l0,0c-6.4-0.6-14.8-2.7-13.8-9.6
			c0.6-4.6,3.6-8.4,8.2-8.6l0,0c5.3-0.4,7.5,4.8,7.4,9.3C103.8,542,103.8,542.3,103.8,542.5z"/>
	</g>
	<g id="XMLID_278_">
		<g id="XMLID_298_">
			<g id="XMLID_578_">
				<path id="XMLID_644_" class="st1" d="M151.2,555.2h2.6c0.8,0,2.1,0.1,2.1,2.3c0,1.9-0.6,2.7-2.2,2.7H152v4.3h-0.8V555.2z
					 M152,559.5h1.5c0.9,0,1.4-0.4,1.4-1.9c0-1.6-0.7-1.7-1.4-1.7H152V559.5z"/>
				<path id="XMLID_641_" class="st1" d="M160,555.2l2.9,9.3H162l-0.7-2.5h-3.7l-0.7,2.5H156l2.9-9.3H160z M161,561.4l-1.6-5.3l0,0
					l-1.6,5.3H161z"/>
				<path id="XMLID_638_" class="st1" d="M165.1,560v4.5h-0.8v-9.3h2.6c1.8,0,2.2,0.6,2.2,2.2c0,1.2-0.2,1.9-1.4,2.2l0,0
					c1.3,0.3,1.4,0.4,1.4,3.8c0,0.4,0.1,0.7,0.1,1.1h-0.8c-0.1-0.3-0.1-1.8-0.1-2.3c0-0.4,0.3-2.2-1.5-2.2
					C166.8,560,165.1,560,165.1,560z M165.1,559.4h1.3c1.2,0,1.8-0.3,1.8-1.9c0-1.3-0.5-1.5-1.5-1.5H165L165.1,559.4L165.1,559.4z"
					/>
				<path id="XMLID_636_" class="st1" d="M172.6,555.9h-2.3v-0.7h5.4v0.7h-2.3v8.6h-0.8L172.6,555.9L172.6,555.9z"/>
				<path id="XMLID_634_" class="st1" d="M178.1,555.2v9.3h-0.8v-9.3H178.1z"/>
				<path id="XMLID_631_" class="st1" d="M180.4,555.2h2.5c2.6,0,2.9,1.5,2.9,4.7c0,3.1-0.5,4.6-3.3,4.6h-2.1L180.4,555.2
					L180.4,555.2z M181.2,563.9h1c2.5,0,2.7-0.7,2.7-4.5c0-2.7-0.4-3.4-2.7-3.4h-1.1v7.9H181.2z"/>
				<path id="XMLID_628_" class="st1" d="M190.5,555c2.8,0,2.8,2.3,2.8,4.8s0,4.8-2.8,4.8s-2.8-2.3-2.8-4.8S187.7,555,190.5,555z
					 M190.5,564c2,0,2-1.7,2-4.1c0-2.4,0-4.1-2-4.1s-2,1.7-2,4.1C188.5,562.3,188.5,564,190.5,564z"/>
				<path id="XMLID_625_" class="st1" d="M198.4,555.2h2.6c0.8,0,2.1,0.1,2.1,2.3c0,1.9-0.6,2.7-2.2,2.7h-1.6v4.3h-0.8v-9.3H198.4z
					 M199.2,559.5h1.5c0.9,0,1.4-0.4,1.4-1.9c0-1.6-0.7-1.7-1.4-1.7h-1.5V559.5z"/>
				<path id="XMLID_622_" class="st1" d="M207.2,555c2.8,0,2.8,2.3,2.8,4.8s0,4.8-2.8,4.8s-2.8-2.3-2.8-4.8S204.4,555,207.2,555z
					 M207.2,564c2,0,2-1.7,2-4.1c0-2.4,0-4.1-2-4.1s-2,1.7-2,4.1C205.2,562.3,205.3,564,207.2,564z"/>
				<path id="XMLID_619_" class="st1" d="M212.8,560v4.5H212v-9.3h2.6c1.8,0,2.2,0.6,2.2,2.2c0,1.2-0.2,1.9-1.4,2.2l0,0
					c1.3,0.3,1.4,0.4,1.4,3.8c0,0.4,0.1,0.7,0.1,1.1h-0.8c-0.1-0.3-0.1-1.8-0.1-2.3c0-0.4,0.3-2.2-1.5-2.2
					C214.5,560,212.8,560,212.8,560z M212.8,559.4h1.3c1.2,0,1.8-0.3,1.8-1.9c0-1.3-0.5-1.5-1.5-1.5h-1.7L212.8,559.4L212.8,559.4z"
					/>
				<path id="XMLID_617_" class="st1" d="M222,564.5v-9.3h0.8v8.6h3.1v0.7C225.9,564.5,222,564.5,222,564.5z"/>
				<path id="XMLID_614_" class="st1" d="M230.5,555.2l2.9,9.3h-0.9l-0.7-2.5h-3.7l-0.7,2.5h-0.8l2.9-9.3H230.5z M231.6,561.4
					L230,556l0,0l-1.6,5.3H231.6z"/>
				<path id="XMLID_612_" class="st1" d="M238,564.5v-9.3h0.8v8.6h3.1v0.7C241.9,564.5,238,564.5,238,564.5z"/>
				<path id="XMLID_610_" class="st1" d="M244.3,555.2v9.3h-0.8v-9.3H244.3z"/>
				<path id="XMLID_606_" class="st1" d="M246.6,564.5v-9.3h2.6c1.5,0,2.2,0.6,2.2,2.2c0,1.1-0.2,1.9-1.4,2.2l0,0
					c1.2,0.3,1.5,1.1,1.5,2.2c0,1.7-0.8,2.6-2.4,2.6L246.6,564.5L246.6,564.5z M249,559.4c1.2,0,1.6-0.8,1.6-1.9
					c0-1.5-0.9-1.6-1.5-1.6h-1.6v3.4h1.5V559.4z M247.4,563.9h1.3c1.4,0,2-0.5,2-1.8c0-0.8-0.2-1.9-1.7-1.9h-1.7L247.4,563.9
					L247.4,563.9z"/>
				<path id="XMLID_604_" class="st1" d="M257.6,555.2v0.7h-3.4v3.5h3.2v0.7h-3.2v3.7h3.5v0.7h-4.3v-9.3H257.6L257.6,555.2z"/>
				<path id="XMLID_601_" class="st1" d="M260.2,560v4.5h-0.8v-9.3h2.6c1.8,0,2.2,0.6,2.2,2.2c0,1.2-0.2,1.9-1.4,2.2l0,0
					c1.3,0.3,1.4,0.4,1.4,3.8c0,0.4,0.1,0.7,0.1,1.1h-0.8c-0.1-0.3-0.1-1.8-0.1-2.3c0-0.4,0.3-2.2-1.5-2.2
					C261.9,560,260.2,560,260.2,560z M260.2,559.4h1.3c1.2,0,1.8-0.3,1.8-1.9c0-1.3-0.5-1.5-1.5-1.5h-1.7v3.4H260.2z"/>
				<path id="XMLID_599_" class="st1" d="M267.7,555.9h-2.3v-0.7h5.4v0.7h-2.3v8.6h-0.8L267.7,555.9L267.7,555.9z"/>
				<path id="XMLID_596_" class="st1" d="M274.8,555.2l2.9,9.3h-0.9l-0.7-2.5h-3.7l-0.7,2.5h-0.8l2.9-9.3H274.8z M275.9,561.4
					l-1.6-5.3l0,0l-1.6,5.3H275.9z"/>
				<path id="XMLID_593_" class="st1" d="M279.2,555.2h2.5c2.6,0,2.9,1.5,2.9,4.7c0,3.1-0.5,4.6-3.3,4.6h-2.1V555.2z M280,563.9h1
					c2.5,0,2.7-0.7,2.7-4.5c0-2.7-0.4-3.4-2.7-3.4h-1V563.9z"/>
				<path id="XMLID_590_" class="st1" d="M293,555.2l2.9,9.3H295l-0.7-2.5h-3.7l-0.7,2.5h-0.8l2.9-9.3H293z M294,561.4l-1.6-5.3l0,0
					l-1.6,5.3H294z"/>
				<path id="XMLID_588_" class="st1" d="M297.4,564.5v-9.3h1.3l3.8,8.2l0,0v-8.2h0.8v9.3H302l-3.8-8.3l0,0v8.3H297.4z"/>
				<path id="XMLID_586_" class="st1" d="M306.4,555.2v9.3h-0.8v-9.3H306.4z"/>
				<path id="XMLID_584_" class="st1" d="M308.7,564.5v-9.3h1.4l2.8,8.4l0,0l2.7-8.4h1.3v9.3h-0.8V556l0,0l-2.7,8.5h-1l-2.8-8.5l0,0
					v8.5H308.7z"/>
				<path id="XMLID_581_" class="st1" d="M322.2,555.2l2.9,9.3h-0.9l-0.7-2.5h-3.7l-0.7,2.5h-0.8l2.9-9.3H322.2z M323.3,561.4
					l-1.6-5.3l0,0l-1.6,5.3H323.3z"/>
				<path id="XMLID_579_" class="st1" d="M326.5,564.5v-9.3h0.8v8.6h3.1v0.7C330.4,564.5,326.5,564.5,326.5,564.5z"/>
			</g>
		</g>
		<g id="XMLID_279_">
			<path id="XMLID_291_" class="st1" d="M153.7,488.6h26.4c17.2,0,24.2,5.9,24.2,17.5c0,6.3-3.2,16.6-22.3,16.6h-16.2V543h-12.2
				v-54.4H153.7z M165.9,513.8h14.2c6.5,0,11.6-1.9,11.6-7.7c0-7.4-6.8-8.5-13.8-8.5h-12V513.8z"/>
			<path id="XMLID_286_" class="st1" d="M213.4,488.6h12.2V534h29.9v8.9h-42.1V488.6z"/>
			<path id="XMLID_280_" class="st1" d="M292.4,488.6h15.3l27.8,54.3H321l-6.2-12.2h-31.3l-5.7,12.2h-13.1L292.4,488.6z
				 M310.4,521.9l-11.2-23.6l-11.3,23.6H310.4z"/>
		</g>
	</g>
</g>
</svg>
