<?xml version="1.0" encoding="utf-8"?>
<!-- Generator: Adobe Illustrator 19.0.0, SVG Export Plug-In . SVG Version: 6.00 Build 0)  -->
<svg version="1.1" id="Capa_1" xmlns="http://www.w3.org/2000/svg" xmlns:xlink="http://www.w3.org/1999/xlink" x="0px" y="0px"
	 viewBox="0 0 160 180" style="enable-background:new 0 0 160 180;" xml:space="preserve">
<style type="text/css">
	.st0{fill:#7677E8;}
	.st1{fill:#3D3787;}
</style>
<g>
	<path id="XMLID_34_" class="st0" d="M136.2,130c2.3,3.5,2.4,8.2,0.4,11.8c-4.1,7.2-13.4,8.2-18.8,2.8c-0.2-0.2-0.4-0.5-0.7-0.7
		l-10-11.5l15.1-15.1l11.5,10C134.7,128,135.5,128.9,136.2,130z"/>
	<polygon id="XMLID_33_" class="st0" points="122.3,117.2 107.1,132.3 100.9,125.2 101,125.1 115.1,111 115.2,111 	"/>
	<path id="XMLID_32_" class="st0" d="M94.1,54.1c2.8,2.8,2.8,7.2,0,10c-2.8,2.8-7.2,2.8-10,0l-20-20c-2.8-2.8-2.8-7.2,0-10
		c1.4-1.4,3.2-2.1,5-2.1c1.8,0,3.6,0.7,5,2.1L94.1,54.1z"/>
	<path id="XMLID_31_" class="st0" d="M85.8,65.7L77.5,74c0,0,0,0,0,0L64.1,87.4c0,0,0,0,0,0l-8.3,8.3l-1.7-1.7l-20-20l-1.7-1.7
		l30-30l1.7,1.7l20,20L85.8,65.7z"/>
	<g>
		<path id="XMLID_30_" class="st0" d="M82.4,82.4l1.7-1.7c0.9-0.9,1.4-2.1,1.4-3.3c0-1.2-0.5-2.4-1.4-3.3c-1.8-1.8-4.8-1.8-6.6,0
			L64,87.5c-0.9,0.9-1.3,2.1-1.3,3.3c0,1.2,0.5,2.4,1.4,3.3c1.8,1.8,4.8,1.8,6.7,0l1.7-1.7l28.5,32.8l0,0l14.2-14.2l0,0L82.4,82.4z"
			/>
		<path id="XMLID_29_" class="st1" d="M83.3,145.6v2.4H22v-2.4c0-5.2,4.2-9.4,9.4-9.4h1.2h40.1h1.2
			C79.1,136.2,83.3,140.4,83.3,145.6z"/>
		<path id="XMLID_28_" class="st1" d="M72.7,124.4c3.3,0,5.9,2.6,5.9,5.9c0,1.6-0.7,3.1-1.7,4.2s-2.5,1.7-4.2,1.7H32.6
			c-3.3,0-5.9-2.6-5.9-5.9c0-1.6,0.7-3.1,1.7-4.2s2.5-1.7,4.2-1.7H72.7z"/>
		<path id="XMLID_27_" class="st0" d="M54.1,94.1c2.8,2.8,2.8,7.2,0,10c-2.8,2.8-7.2,2.8-10,0l-20-20c-2.8-2.8-2.8-7.2,0-10
			c1.4-1.4,3.2-2.1,5-2.1c1.8,0,3.6,0.7,5,2.1L54.1,94.1z"/>
	</g>
	<path id="XMLID_26_" class="st0" d="M44.1,70.7c-0.9,0.9-0.9,2.4,0,3.3c0.9,0.9,2.4,0.9,3.3,0c0.9-0.9,0.9-2.4,0-3.3
		C46.5,69.8,45,69.8,44.1,70.7z"/>
	<path class="st1" d="M79.3,135.2c1-1.4,1.6-3.1,1.6-4.9c0-4.5-3.7-8.3-8.3-8.3H32.6c-2.2,0-4.3,0.9-5.8,2.4
		c-1.6,1.6-2.4,3.6-2.4,5.8c0,1.8,0.6,3.5,1.6,4.9c-3.8,2-6.3,5.9-6.3,10.4v2.4c0,1.3,1.1,2.4,2.4,2.4h61.3c1.3,0,2.4-1.1,2.4-2.4
		v-2.4C85.7,141.1,83.1,137.2,79.3,135.2z M30.1,127.8c0.7-0.7,1.6-1,2.5-1h40.1c1.9,0,3.5,1.6,3.5,3.5c0,0.9-0.4,1.8-1,2.5
		c-0.7,0.7-1.6,1-2.5,1H32.6c-1.9,0-3.5-1.6-3.5-3.5C29.1,129.4,29.4,128.5,30.1,127.8z M24.4,145.6c0-3.9,3.2-7.1,7.1-7.1h1.2h40.1
		h1.2c3.9,0,7.1,3.2,7.1,7.1H24.4z"/>
	<path class="st0" d="M138.2,128.7c-0.8-1.2-1.8-2.3-2.8-3.3l-11-9.6c-0.1-0.1-0.2-0.3-0.3-0.4c-0.2-0.2-0.4-0.3-0.6-0.5l-6.7-5.8
		L85.9,82.3c1.3-1.3,2-3,2-4.9c0-1.9-0.7-3.7-2.1-5c-0.6-0.6-1.2-1-2-1.4l2.9-2.9c0.8,0.2,1.6,0.3,2.4,0.3c2.4,0,4.8-0.9,6.7-2.8
		c1.8-1.8,2.8-4.1,2.8-6.7c0-2.5-1-4.9-2.8-6.7l-20-20c-1.8-1.8-4.2-2.8-6.7-2.8c-2.5,0-4.9,1-6.7,2.8c-2.5,2.5-3.3,6-2.4,9.1
		L31.5,70c-0.8-0.2-1.6-0.3-2.4-0.3c-2.5,0-4.9,1-6.7,2.8c-3.7,3.7-3.7,9.7,0,13.3l20,20c1.8,1.8,4.3,2.8,6.7,2.8
		c2.4,0,4.8-0.9,6.7-2.8c2.5-2.5,3.3-6,2.4-9.1l2.8-2.8c0.3,0.7,0.8,1.4,1.4,1.9c1.3,1.3,3.1,2.1,5,2.1c1.8,0,3.6-0.7,4.9-2
		l32.8,37.7c0.1,0.1,0.2,0.3,0.3,0.4c0,0,0.1,0.1,0.1,0.1l9.8,11.2c0.2,0.3,0.5,0.6,0.8,0.8c2.7,2.7,6.2,4.1,10,4.1
		c0.7,0,1.3,0,2-0.1c4.4-0.6,8.3-3.3,10.5-7.3C141.1,138.5,140.9,132.9,138.2,128.7z M104.2,125.3l11.1-11.1l3.6,3.1l-11.6,11.6
		L104.2,125.3z M75.6,92.5l6.9-6.9l29.2,25.4l-10.6,10.6L75.6,92.5z M65.7,35.7c0.9-0.9,2.1-1.4,3.3-1.4c1.3,0,2.4,0.5,3.3,1.4
		l20,20c0.9,0.9,1.4,2.1,1.4,3.3c0,1.3-0.5,2.4-1.4,3.3c-1.8,1.8-4.8,1.8-6.7,0l-20-20c0,0,0,0,0,0C63.9,40.6,63.9,37.6,65.7,35.7z
		 M52.4,102.4c-1.8,1.8-4.8,1.8-6.7,0l-20-20c-1.8-1.8-1.8-4.8,0-6.7c0.9-0.9,2.1-1.4,3.3-1.4c1.3,0,2.4,0.5,3.3,1.4l20,20
		C54.3,97.6,54.3,100.6,52.4,102.4z M35.7,72.4l26.7-26.7l20,20l-6.6,6.6c0,0,0,0-0.1,0.1L62.4,85.7c0,0-0.1,0.1-0.1,0.1l-6.6,6.6
		L35.7,72.4z M67.4,93.1c-0.6,0-1.2-0.2-1.7-0.7c-0.4-0.4-0.7-1-0.7-1.7c0-0.6,0.2-1.2,0.7-1.6l13.4-13.4c0.9-0.9,2.4-0.9,3.3,0
		c0.4,0.4,0.7,1,0.7,1.7c0,0.6-0.2,1.2-0.7,1.7l-1.7,1.7c0,0,0,0,0,0l-10,10c0,0,0,0,0,0l-1.7,1.7C68.6,92.9,68,93.1,67.4,93.1z
		 M134.5,140.6c-1.5,2.7-4.1,4.5-7.1,4.9c-3,0.4-5.9-0.6-8-2.7c-0.2-0.2-0.4-0.4-0.5-0.6c0,0,0,0,0,0l-8.6-9.9l12-12l9.8,8.6
		c0,0,0,0,0,0c0.7,0.6,1.4,1.4,1.9,2.2C136,134,136.1,137.8,134.5,140.6z"/>
	<path id="XMLID_2_" class="st0" d="M64.1,54.1c-0.9-0.9-2.4-0.9-3.3,0l-10,10c-0.9,0.9-0.9,2.4,0,3.3c0.5,0.5,1.1,0.7,1.7,0.7
		c0.6,0,1.2-0.2,1.7-0.7l10-10C65,56.5,65,55,64.1,54.1z"/>
</g>
</svg>
