<?xml version="1.0" encoding="utf-8"?>
<!-- Generator: Adobe Illustrator 19.0.0, SVG Export Plug-In . SVG Version: 6.00 Build 0)  -->
<svg version="1.1" id="Capa_1" xmlns="http://www.w3.org/2000/svg" xmlns:xlink="http://www.w3.org/1999/xlink" x="0px" y="0px"
	 viewBox="0 0 160 180" style="enable-background:new 0 0 160 180;" xml:space="preserve">
<style type="text/css">
	.st0{fill:#7677E8;}
	.st1{fill:#3D3787;}
</style>
<g>
	<g>
		<path class="st0" d="M126.2,73.6l-43-24.2c0,0,0,0,0-0.1V37.2c0,0,0-0.1,0.1-0.1h8.4c0,0,0.1,0,0.1,0.1v4.6c0,1.8,1.4,3.2,3.2,3.2
			h25.6c1.7,0,3.1-1.4,3.1-3.2c0-0.4-0.1-0.7-0.2-1.1l-2.6-7.3c0,0,0,0,0,0l2.6-7.1c0.6-1.6-0.3-3.4-1.9-4c-0.3-0.1-0.7-0.2-1.1-0.2
			h-11.6c0,0-0.1,0-0.1-0.1v-4.4c0-1.8-1.4-3.2-3.2-3.2H83.2c0,0-0.1,0-0.1-0.1l0-3.6c0-1.6-1-3-2.6-3.3c-2-0.4-3.7,1.2-3.7,3.1
			v38.9c0,0,0,0,0,0.1l-43,24.2c-1,0.5-1.6,1.6-1.6,2.7v96.3c0,0,0,0.1,0.1,0.1h95.5c0,0,0.1,0,0.1-0.1V76.4
			C127.8,75.3,127.2,74.2,126.2,73.6z M108.8,34l-0.1-0.1v-5.3c0,0,0-0.1,0.1-0.1h7c0,0,0.1,0,0.1,0.1l-1.3,3.9
			c-0.3,0.7-0.3,1.5,0,2.2l1.4,3.9c0,0,0,0.1-0.1,0.1H98c0,0-0.1,0-0.1-0.1v-1.4c0,0,0-0.1,0.1-0.1h7.7
			C107.4,37.1,108.8,35.7,108.8,34z M83.2,20.6h19.3c0,0,0.1,0,0.1,0.1v10.1c0,0,0,0.1-0.1,0.1H83.2c0,0-0.1,0-0.1-0.1L83.2,20.6
			C83.2,20.6,83.2,20.6,83.2,20.6z M76.8,166.4H60.4c0,0-0.1,0-0.1-0.1v-35.8c0,0,0-0.1,0.1-0.1h16.4c0,0,0.1,0,0.1,0.1L76.8,166.4
			C76.8,166.4,76.8,166.4,76.8,166.4z M99.6,166.4H83.2c0,0-0.1,0-0.1-0.1v-35.8c0,0,0-0.1,0.1-0.1h16.4c0,0,0.1,0,0.1,0.1
			L99.6,166.4C99.7,166.4,99.6,166.4,99.6,166.4z M121.6,166.4H106c0,0-0.1,0-0.1-0.1v-39c0-1.7-1.4-3.2-3.2-3.2H57.3
			c-1.8,0-3.2,1.4-3.2,3.2v38.9c0,0,0,0.1-0.1,0.1H38.4c0,0-0.1,0-0.1-0.1v-88c0,0,0,0,0-0.1L80,54.9c0,0,0,0,0.1,0l41.5,23.3
			c0,0,0,0,0,0.1l0.1,9L121.6,166.4C121.7,166.4,121.6,166.4,121.6,166.4z"/>
	</g>
	<g>
		<path id="XMLID_2_" class="st1" d="M90.9,105.5c-6.5,9.4-21.3,8.6-19.2-0.7c1.4-6.1,4.5-11.9,9.3-16.7
			c-6.1,3.9-10.6,9.3-13.3,15.5c-0.7,1.5-2.8,1.5-3.5,0.1c-5.2-10.1,1-21.9,16.1-23.5c7.9-0.8,10.3-1.7,10.4-1.7
			C90.6,84.2,97,97.2,90.9,105.5z"/>
	</g>
</g>
</svg>
