<?xml version="1.0" encoding="utf-8"?>
<!-- Generator: Adobe Illustrator 19.0.0, SVG Export Plug-In . SVG Version: 6.00 Build 0)  -->
<svg version="1.1" id="Capa_1" xmlns="http://www.w3.org/2000/svg" xmlns:xlink="http://www.w3.org/1999/xlink" x="0px" y="0px"
	 viewBox="0 0 160 180" style="enable-background:new 0 0 160 180;" xml:space="preserve">
<style type="text/css">
	.st0{fill:#7677E8;}
</style>
<g>
	<rect id="XMLID_19_" x="70" y="93.3" class="st0" width="19.9" height="6.6"/>
	<path class="st0" d="M115.3,100H96.6v3.3c0,1.8-1.5,3.3-3.3,3.3H66.7c-1.8,0-3.3-1.5-3.3-3.3V100H44.7c-4.3,0-8.1-2.7-9.5-6.8
		l-12-35.9v72.6c0,5.5,4.5,10,10,10h93.5c5.5,0,10-4.5,10-10V57.3l-12,35.9C123.4,97.2,119.6,100,115.3,100L115.3,100z M115.3,100"
		/>
	<path class="st0" d="M93.3,40.1H66.7c-5.5,0-10,4.5-10,10v3.3H29l12.5,37.6c0.5,1.4,1.7,2.3,3.2,2.3h18.7V90c0-1.8,1.5-3.3,3.3-3.3
		h26.6c1.8,0,3.3,1.5,3.3,3.3v3.3h18.7c1.4,0,2.7-0.9,3.2-2.3L131,53.4h-27.7v-3.3C103.3,44.6,98.8,40.1,93.3,40.1L93.3,40.1z
		 M63.4,53.4v-3.3c0-1.8,1.5-3.3,3.3-3.3h26.6c1.8,0,3.3,1.5,3.3,3.3v3.3H63.4z M63.4,53.4"/>
</g>
</svg>
