<?xml version="1.0" encoding="utf-8"?>
<!-- Generator: Adobe Illustrator 19.0.0, SVG Export Plug-In . SVG Version: 6.00 Build 0)  -->
<svg version="1.1" id="Capa_1" xmlns="http://www.w3.org/2000/svg" xmlns:xlink="http://www.w3.org/1999/xlink" x="0px" y="0px"
	 viewBox="0 0 160 180" style="enable-background:new 0 0 160 180;" xml:space="preserve">
<style type="text/css">
	.st0{fill:#3D3787;}
	.st1{fill:#7677E8;}
</style>
<g>
	<path id="XMLID_16_" class="st0" d="M67.4,86.9c8.8,1.6,16.6-7.1,10.2-11c-4.2-2.6-9.1-4.1-14.4-4.1c5.5-1.2,11.1-0.7,16,1.2
		c1.2,0.5,2.4-0.7,2-1.9c-2.7-8.5-12.7-11.6-21.9-4.1c-4.9,3.9-6.7,4.8-6.7,4.8C55.7,75,59.4,85.7,67.4,86.9z"/>
	<path id="XMLID_15_" class="st0" d="M84.3,53.8c0.3-8.2,4.4-14.4,12-17.8c-3.4,4.4-5.6,9.4-6.8,14.5c-1.8,8-3.7,13.2-4.4,38.6
		c-0.1,2.6,2,4.7,4.6,4.7c1.9,0,3.5-1.2,4.2-2.9c1.1-2.6,2.9-5.3,5.8-7.8c2.7,3,6.9,4.6,11.2,3.9c7.9-1.2,11.7-11.9,14.8-15.1
		c0,0-1.9-0.9-6.7-4.8C103,54,92.9,74.4,99.2,72.4c4.5-1.4,9.4-1.8,14.3-0.6c-8.3,0-16,3.8-21.1,10c0.4-9.8,1.1-15.9,1.8-20.4
		c4.3-0.1,9.9-3.6,13-9.6c5.4-9.6,2.9-19.5,2.1-25.7c-4.2,4.1-22.5-0.7-29.8,11.8c-3.2,5.5-2.3,12.2,1.1,17.1
		C81.6,56.5,84.2,55.7,84.3,53.8z"/>
	<path id="XMLID_2_" class="st1" d="M142.4,98.6c-5-3.4-10.4-1-12.9,0.5l-31.2,22.9l-18.3,0l-4.6-4.6h16.8c5.1,0,10.7-3.3,10.7-9.1
		c0-6.2-5.7-9.1-10.7-9.1h-6.3c-4.7,0-10.1,0.4-14-1.6c-3.7-1.9-7.9-2.9-12.4-2.9c-7.6,0-14.3,3-19,7.8l-24.6,24.2l27.4,27.4
		l9.1-13.7h43.2c4.6,0,9.1-1.7,12.5-4.8l34.5-30.6C144.6,103.1,144.5,100,142.4,98.6z"/>
</g>
</svg>
