<?xml version="1.0" encoding="utf-8"?>
<!-- Generator: Adobe Illustrator 19.0.0, SVG Export Plug-In . SVG Version: 6.00 Build 0)  -->
<svg version="1.1" id="Capa_1" xmlns="http://www.w3.org/2000/svg" xmlns:xlink="http://www.w3.org/1999/xlink" x="0px" y="0px"
	 viewBox="0 0 160 180" style="enable-background:new 0 0 160 180;" xml:space="preserve">
<style type="text/css">
	.st0{fill:#7677E8;}
</style>
<g>
	<g>
		<path class="st0" d="M119.8,127.3c3.1,14.2-12.3,17.3-19.1,15.4c-6.8-1.8-20.6-2.2-20.6-2.2s-13.9,0.3-20.7,2.2
			c-6.8,1.9-22.2-1.2-19.1-15.4c3.1-14.2,16.7-13.6,20.4-32.7C64.3,75.5,80,76.7,80,76.7s15.7-1.2,19.4,17.9
			C103.1,113.7,116.7,113.1,119.8,127.3L119.8,127.3z M94.3,75.5c8.4,2.4,17.6-4.2,20.6-14.7c3-10.5-1.3-21-9.6-23.4
			c-8.4-2.4-17.6,4.2-20.6,14.7C81.6,62.5,85.9,73,94.3,75.5L94.3,75.5z M128.9,71.6c-8-3.3-17.9,2.3-22.1,12.4
			c-4.1,10.2-1,21.1,7.1,24.3c8,3.3,17.9-2.3,22.1-12.4C140.1,85.8,136.9,74.9,128.9,71.6L128.9,71.6z M65.7,75.5
			C74.1,73,78.4,62.5,75.3,52c-3-10.5-12.3-17.1-20.6-14.7c-8.3,2.4-12.7,12.9-9.6,23.4C48.1,71.3,57.4,77.9,65.7,75.5L65.7,75.5z
			 M46.1,108.4c8-3.3,11.2-14.2,7.1-24.3c-4.1-10.2-14-15.7-22.1-12.4c-8,3.3-11.2,14.2-7.1,24.3C28.2,106.1,38.1,111.7,46.1,108.4
			L46.1,108.4z M46.1,108.4"/>
	</g>
</g>
</svg>
