<?xml version="1.0" encoding="utf-8"?>
<!-- Generator: Adobe Illustrator 19.0.0, SVG Export Plug-In . SVG Version: 6.00 Build 0)  -->
<svg version="1.1" id="Capa_1" xmlns="http://www.w3.org/2000/svg" xmlns:xlink="http://www.w3.org/1999/xlink" x="0px" y="0px"
	 viewBox="0 0 160 180" style="enable-background:new 0 0 160 180;" xml:space="preserve">
<style type="text/css">
	.st0{fill:#7677E8;}
</style>
<g>
	<path id="XMLID_18_" class="st0" d="M89.4,111.8h-4.7v9.4h4.7c2.6,0,4.7-2.1,4.7-4.7C94,113.9,91.9,111.8,89.4,111.8z"/>
	<path id="XMLID_17_" class="st0" d="M66,97.8c0,2.6,2.1,4.7,4.7,4.7h4.7v-9.4h-4.7C68.1,93.1,66,95.2,66,97.8z"/>
	<g>
		<path id="XMLID_16_" class="st0" d="M92.5,38.6c0-6.9-5.6-12.5-12.5-12.5c-6.9,0-12.5,5.6-12.5,12.5H55.1V51h49.9V38.6H92.5z"/>
		<path class="st0" d="M114.3,51v9.4H45.7V51H33.2v102.9h93.5V51H114.3z M89.4,130.5h-4.7v7.8h-9.4v-7.8h-4.7
			c-3.7,0-7.4-0.6-10.9-1.9l3.1-8.8c2.5,0.9,5.1,1.3,7.8,1.3h4.7v-9.4h-4.7c-7.7,0-14-6.3-14-14s6.3-14,14-14h4.7V76h9.4v7.8h4.7
			c3.7,0,7.4,0.6,10.9,1.9l-3.1,8.8c-2.5-0.9-5.1-1.3-7.8-1.3h-4.7v9.4h4.7c7.7,0,14,6.3,14,14S97.1,130.5,89.4,130.5z"/>
	</g>
</g>
</svg>
