<?xml version="1.0" encoding="utf-8"?>
<!-- Generator: Adobe Illustrator 19.0.0, SVG Export Plug-In . SVG Version: 6.00 Build 0)  -->
<svg version="1.1" id="Capa_1" xmlns="http://www.w3.org/2000/svg" xmlns:xlink="http://www.w3.org/1999/xlink" x="0px" y="0px"
	 viewBox="0 0 160 180" style="enable-background:new 0 0 160 180;" xml:space="preserve">
<style type="text/css">
	.st0{fill:#7677E8;}
</style>
<g>
	<path class="st0" d="M103.7,52.6c7.1,0,12.8-5.7,12.8-12.8c0-7.1-5.7-12.8-12.8-12.8c-7.1,0-12.8,5.7-12.8,12.8
		C90.9,46.9,96.7,52.6,103.7,52.6L103.7,52.6z M103.7,52.6"/>
	<g>
		<path class="st0" d="M45.2,52.6c7.1,0,12.8-5.7,12.8-12.8C58,32.7,52.2,27,45.2,27c-7.1,0-12.8,5.7-12.8,12.8
			C32.4,46.9,38.1,52.6,45.2,52.6L45.2,52.6z M45.2,52.6"/>
		<path class="st0" d="M143.3,93.8c0.4-1.8-0.2-3.7-1.7-4.9L130,79.6l-10.7-26c-0.7-1.6-2-2.6-3.6-2.9c-3,3.3-7.2,5.3-12,5.3
			c-4.7,0-9-2.1-12-5.3c-1.6,0.3-3,1.4-3.6,2.9L74.5,86.8L60.8,53.6c-0.7-1.6-2-2.6-3.6-2.9c-3,3.3-7.2,5.3-12,5.3
			c-4.7,0-9-2.1-12-5.3c-1.6,0.3-3,1.4-3.6,2.9L11.4,97.9c-1,2.5,0.2,5.4,2.7,6.4c0.6,0.3,1.2,0.4,1.9,0.4c1.9,0,3.8-1.1,4.5-3
			l9.2-22.4v6.2L20.5,114c-1.5,4.8,2.1,9.7,7.1,9.7h2.1v22.7c0,3.6,3,6.6,6.7,6.5c3.5-0.1,6.2-3.1,6.2-6.6v-22.6h5.1v22.7
			c0,3.6,3,6.6,6.7,6.5c3.5-0.1,6.2-3.1,6.2-6.6v-22.6h2.1c5.1,0,8.7-4.9,7.1-9.7l-9.2-28.6v-6.2l7.4,18c1.1,2.6,3.6,4.3,6.4,4.3
			c2.8,0,5.3-1.7,6.4-4.3l7.4-18v67.3c0,3.6,3,6.6,6.7,6.5c3.5-0.1,6.2-3.1,6.2-6.6v-34.9c0-1.4,1-2.6,2.4-2.6
			c1.5-0.1,2.7,1.1,2.7,2.6v35.1c0,3.6,3,6.6,6.7,6.5c3.5-0.1,6.2-3.1,6.2-6.6V79.2l2.2,5.3c0.3,0.8,0.8,1.4,1.5,2l11.7,9.3
			c-1.5,1.5-2.4,3.6-2.4,5.9v48.7c0,1.3,1,2.3,2.2,2.4c1.3,0,2.4-1,2.4-2.3v-48.6c0-2,1.5-3.8,3.5-4c2.3-0.2,4.2,1.6,4.2,3.8v5.7
			c0,1.3,1,2.3,2.2,2.4c1.3,0,2.4-1,2.4-2.3v-5.8C149,98.1,146.6,94.9,143.3,93.8L143.3,93.8z M143.3,93.8"/>
	</g>
</g>
</svg>
