<?xml version="1.0" encoding="utf-8"?>
<!-- Generator: Adobe Illustrator 19.0.0, SVG Export Plug-In . SVG Version: 6.00 Build 0)  -->
<svg version="1.1" id="Capa_1" xmlns="http://www.w3.org/2000/svg" xmlns:xlink="http://www.w3.org/1999/xlink" x="0px" y="0px"
	 viewBox="0 0 160 180" style="enable-background:new 0 0 160 180;" xml:space="preserve">
<style type="text/css">
	.st0{fill:#7677E8;}
	.st1{fill:#3D3787;}
	.st2{fill:#FFFFFF;}
	.st3{fill:#3D3787;stroke:#FFFFFF;stroke-width:0.4582;stroke-miterlimit:10;}
</style>
<g>
	<g id="XMLID_28_">
		<path id="XMLID_37_" class="st0" d="M127.8,71.9L127.8,71.9c1.8,0,3.4,1.5,3.4,3.4v28.9H33.4c-5.1,0-9.2-4.1-9.2-9.2V81.2
			c0-1.6,0.4-3.3,1.3-4.7c1.7-2.8,4.7-4.6,8-4.6H127.8 M127.8,71H33.4c-3.7,0-7,2-8.8,5c-0.9,1.5-1.4,3.3-1.4,5.1V95
			c0,5.6,4.6,10.2,10.2,10.2H132V75.3C132,72.9,130.1,71,127.8,71L127.8,71z"/>
	</g>
	<path id="XMLID_24_" class="st1" d="M90.2,68.2c0,15.1-12.2,27.3-27.3,27.3c-1.1,0-2.2-0.1-3.2-0.2c-3.4-0.4-6.7-1.5-9.6-3
		c-2.7-1.4-5.1-3.3-7.1-5.5c-4.1-4.4-6.7-10.1-7.2-16.4c-0.1-0.7-0.1-1.4-0.1-2.2c0-15.1,12.2-27.3,27.3-27.3c0.7,0,1.4,0,2.2,0.1
		c6.3,0.5,12,3.1,16.4,7.2c2.2,2,4.1,4.5,5.5,7.1c1.6,2.9,2.6,6.2,3,9.6C90.1,66,90.2,67.1,90.2,68.2z"/>
	<path id="XMLID_23_" class="st0" d="M132,97.5v68.1c0,3.4-2.7,6.1-6.1,6.1H33.4c-5.6,0-10.2-4.6-10.2-10.2V81.2
		c0,5.6,4.6,10.2,10.2,10.2h92.5C129.3,91.3,132,94.1,132,97.5z"/>
	<path id="XMLID_22_" class="st1" d="M114.5,142.1h17.9c2.4,0,4.4-2,4.4-4.4v-16.2c0-2.4-2-4.4-4.4-4.4h-17.9
		c-6.9,0-12.6,5.6-12.6,12.6l0,0C101.9,136.5,107.5,142.1,114.5,142.1z"/>
	<g>
		<path class="st2" d="M62.1,76.1c-6.1-0.2-7.1-3-7.1-5.8h4.8c0,1.8,0.7,2.4,2.3,2.6v-3.8l-1.2-0.2c-2.7-0.5-5.6-1.5-5.6-4.7
			c0-3.8,3.3-5.3,6.8-5.5v-1.6h1.6v1.6c5.3,0.2,6.8,2,7,5.2H66c-0.1-1.5-1.1-1.9-2.3-1.9v3.5l1.9,0.4c3,0.6,5.5,1.6,5.5,4.9
			c0,4.2-3.8,5.3-7.3,5.5v1.8h-1.6V76.1z M62.1,61.9c-1.4,0.2-2,0.9-2,1.6c0,0.8,0.8,1.2,2,1.5V61.9z M63.7,72.9
			c2.2-0.2,2.5-1.1,2.5-1.7c0-1-0.9-1.4-2.5-1.7V72.9z"/>
	</g>
	<path id="XMLID_17_" class="st3" d="M127.7,35.6c0,15.1-12.2,27.3-27.3,27.3c-1.1,0-2.2-0.1-3.2-0.2c-3.4-0.4-6.7-1.5-9.6-3
		c-2.7-1.4-5.1-3.3-7.1-5.5c-4.1-4.4-6.7-10.1-7.2-16.4c-0.1-0.7-0.1-1.4-0.1-2.2c0-15.1,12.2-27.3,27.3-27.3c0.7,0,1.4,0,2.2,0.1
		c6.3,0.5,12,3.1,16.4,7.2c2.2,2,4.1,4.5,5.5,7.1c1.6,2.9,2.6,6.2,3,9.6C127.7,33.4,127.7,34.5,127.7,35.6z"/>
	<g>
		<path class="st2" d="M99.2,44.5c-6.1-0.2-7.1-3-7.1-5.8h4.8c0,1.8,0.7,2.4,2.3,2.6v-3.8L98,37.3c-2.7-0.5-5.6-1.5-5.6-4.7
			c0-3.8,3.3-5.3,6.8-5.5v-1.6h1.6v1.6c5.3,0.2,6.8,2,7,5.2h-4.7c-0.1-1.5-1.1-1.9-2.3-1.9v3.5l1.9,0.4c3,0.6,5.5,1.6,5.5,4.9
			c0,4.2-3.8,5.3-7.3,5.5v1.8h-1.6V44.5z M99.2,30.3c-1.4,0.2-2,0.9-2,1.6c0,0.8,0.8,1.2,2,1.5V30.3z M100.9,41.3
			c2.2-0.2,2.5-1.1,2.5-1.7c0-1-0.9-1.4-2.5-1.7V41.3z"/>
	</g>
</g>
</svg>
