<svg id="Capa_1" data-name="Capa 1" xmlns="http://www.w3.org/2000/svg" viewBox="0 0 248.4 45"><defs><style>.cls-1{fill:#fff;}</style></defs><title>Mesa de trabajo 1</title><path id="_Trazado_compuesto_" data-name="&lt;Trazado compuesto&gt;" class="cls-1" d="M34,4.17H16.68a10.61,10.61,0,0,0-10.6,10.6V32a10.61,10.61,0,0,0,10.6,10.6h17.2A10.61,10.61,0,0,0,44.48,32V14.77A10.46,10.46,0,0,0,34,4.17ZM41.18,32a7.17,7.17,0,0,1-7.2,7.2H16.68A7.17,7.17,0,0,1,9.48,32V14.77a7.17,7.17,0,0,1,7.2-7.2h17.2a7.17,7.17,0,0,1,7.2,7.2V32Z"/><path id="_Trazado_compuesto_2" data-name="&lt;Trazado compuesto&gt;" class="cls-1" d="M25.28,13.47a9.9,9.9,0,1,0,9.9,9.9,9.86,9.86,0,0,0-9.9-9.9Zm0,16.4a6.5,6.5,0,1,1,6.5-6.5,6.55,6.55,0,0,1-6.5,6.5Z"/><path id="_Trazado_" data-name="&lt;Trazado&gt;" class="cls-1" d="M35.68,10.57a2.87,2.87,0,0,0-1.8.7,2.41,2.41,0,0,0-.7,1.8,2.87,2.87,0,0,0,.7,1.8,2.41,2.41,0,0,0,1.8.7,2.87,2.87,0,0,0,1.8-.7,2.41,2.41,0,0,0,.7-1.8,2.87,2.87,0,0,0-.7-1.8,3.12,3.12,0,0,0-1.8-.7Z"/><path class="cls-1" d="M47.75,19.26h1.7c0,.18.09.34.12.47s0,.27.07.39,0,.29,0,.42V21a2.59,2.59,0,0,1,1.66-1.88,9.59,9.59,0,0,1,2.51-.24h.49v1.45H54l-.36,0a3.9,3.9,0,0,0-2.78,1.08,3.65,3.65,0,0,0-1.15,2.8v8.66H48V21a5.59,5.59,0,0,0,0-.57c0-.18,0-.37-.07-.56a3.74,3.74,0,0,0-.12-.6Z"/><path class="cls-1" d="M66.39,28.16H68.3A6.12,6.12,0,0,1,66.12,32,6.41,6.41,0,0,1,62.36,33c-2.19,0-3.75-.63-4.68-1.91a8.31,8.31,0,0,1-1.61-4.22c0-.18,0-.35,0-.52s0-.35,0-.53a7.34,7.34,0,0,1,1.88-5.19,5.75,5.75,0,0,1,4.28-2,5.21,5.21,0,0,1,4.61,2.07,8.53,8.53,0,0,1,1.55,4.58V26a.45.45,0,0,0,0,.16v.16l-10.38,0a5.42,5.42,0,0,0,.07.89,6.58,6.58,0,0,0,.2.94,5.9,5.9,0,0,0,1.29,2.41,3.23,3.23,0,0,0,2.58,1.09h.3a4.45,4.45,0,0,0,2.35-.7,3.93,3.93,0,0,0,1.2-1.26,4.36,4.36,0,0,0,.32-.77,5.21,5.21,0,0,0,.16-.66Zm0-3.45a.22.22,0,0,1,0-.1v-.18a3.72,3.72,0,0,0-1-2.73,4.21,4.21,0,0,0-2.21-1.25,3.29,3.29,0,0,0-.43-.09l-.43,0a6.46,6.46,0,0,0-.92.07,3.06,3.06,0,0,0-1,.33A4,4,0,0,0,59,22a7.26,7.26,0,0,0-1.06,2.78l8.47,0Z"/><path class="cls-1" d="M71.91,19.26l4.65,11,4.22-11h1.91l-5.3,13.56H75.48L70,19.26Z"/><path class="cls-1" d="M84,25.83a8,8,0,0,1,1.65-5.09,5.42,5.42,0,0,1,4.51-2.1,5.82,5.82,0,0,1,4.6,2,7.68,7.68,0,0,1,1.74,5.19,8.09,8.09,0,0,1-1.72,5.29,5.46,5.46,0,0,1-4.41,2.11,5.81,5.81,0,0,1-4.53-2.11A7.75,7.75,0,0,1,84,25.85Zm1.69,0A8.26,8.26,0,0,0,87,30a3.8,3.8,0,0,0,3.29,1.79A3.67,3.67,0,0,0,93.56,30a7.48,7.48,0,0,0,1.21-4v-.08a6.83,6.83,0,0,0-1.21-3.93,3.68,3.68,0,0,0-3.15-1.77h-.29A4.18,4.18,0,0,0,86.85,22a6.49,6.49,0,0,0-1.2,3.9Z"/><path class="cls-1" d="M101.55,13.34V32.82h-1.7V13.34Z"/><path class="cls-1" d="M107.46,27.3a5.37,5.37,0,0,0,.82,3.3,3.55,3.55,0,0,0,2.57,1.2h.27a3.17,3.17,0,0,0,2.69-1.49,6.14,6.14,0,0,0,1-3.62V19.48h1.7v10c0,.45,0,1,0,1.57a12.63,12.63,0,0,0,.19,1.82h-1.69c0-.06,0-.12-.06-.2s0-.17,0-.26a11.59,11.59,0,0,1-.11-1.43,5,5,0,0,1-1.47,1.71,4.76,4.76,0,0,1-2.75.61c-1.8,0-3.06-.49-3.78-1.45A6.2,6.2,0,0,1,105.77,28v-8.5h1.69Z"/><path class="cls-1" d="M128.16,21.23a3.9,3.9,0,0,0-5.31.33,6.33,6.33,0,0,0-1.27,2.7q-.08.4-.12.81c0,.27,0,.53,0,.78s0,.44,0,.67,0,.47.06.7a6.87,6.87,0,0,0,1,3,3.67,3.67,0,0,0,3.12,1.54,3.49,3.49,0,0,0,2.33-.92,3.08,3.08,0,0,0,1.06-2.47l1.91,0A5.14,5.14,0,0,1,129.44,32a5.41,5.41,0,0,1-3.77,1.24,5.81,5.81,0,0,1-4.15-1.71c-1.2-1.14-1.79-3-1.79-5.69a7.18,7.18,0,0,1,1.07-4.21,6.65,6.65,0,0,1,2.4-2.14,5.67,5.67,0,0,1,1.33-.49,5.26,5.26,0,0,1,1.14-.15h.27l.08,0a4.89,4.89,0,0,1,3.39,1.32,4.29,4.29,0,0,1,1.56,2.9v.49l-1.91,0A3.06,3.06,0,0,0,128.16,21.23Z"/><path class="cls-1" d="M135.84,13.34v2.1h-2.13v-2.1Zm-.22,5.92V32.82h-1.69V19.26Z"/><path class="cls-1" d="M138.77,25.83a7.92,7.92,0,0,1,1.66-5.09,5.41,5.41,0,0,1,4.5-2.1,5.82,5.82,0,0,1,4.6,2,7.64,7.64,0,0,1,1.75,5.19,8.14,8.14,0,0,1-1.72,5.29,5.46,5.46,0,0,1-4.41,2.11,5.82,5.82,0,0,1-4.54-2.11,7.75,7.75,0,0,1-1.84-5.29Zm1.7,0A8.16,8.16,0,0,0,141.85,30a3.81,3.81,0,0,0,3.3,1.79A3.66,3.66,0,0,0,148.37,30a7.39,7.39,0,0,0,1.21-4v-.08a6.83,6.83,0,0,0-1.21-3.93,3.65,3.65,0,0,0-3.14-1.77h-.3a4.18,4.18,0,0,0-3.27,1.8,6.49,6.49,0,0,0-1.19,3.9Z"/><path class="cls-1" d="M156.36,21.17l.22-.23.21-.25a7.48,7.48,0,0,1,1.53-1.25,4.13,4.13,0,0,1,2.26-.58,4.4,4.4,0,0,1,1,.13,6.79,6.79,0,0,1,1.24.43,6.08,6.08,0,0,1,1.83,1.43,3.62,3.62,0,0,1,.83,2.47v9.5h-1.69v-8.9a3.8,3.8,0,0,0-.94-2.47,3.15,3.15,0,0,0-2.53-1.11H160a3.32,3.32,0,0,0-2.51,1.38,5.71,5.71,0,0,0-1.07,2.71c0,.1,0,.21,0,.31a2.64,2.64,0,0,0,0,.28v7.8h-1.69V21.92c0-.25,0-.55,0-.9s-.09-.92-.18-1.73l1.7,0a13.7,13.7,0,0,1,.21,1.94Z"/><path class="cls-1" d="M170.56,19.85a7,7,0,0,1,3.31-1,.85.85,0,0,1,.23,0h.26a5.53,5.53,0,0,1,3.28,1c.91.65,1.37,1.89,1.37,3.7,0,3.15,0,5.27,0,6.33a20.75,20.75,0,0,0,.15,2.57,1.27,1.27,0,0,0,0,.2c0,.07,0,.12,0,.18h-1.69a.09.09,0,0,1,0-.06,10.31,10.31,0,0,1-.19-1.61,3.24,3.24,0,0,1-1,1.12,5.36,5.36,0,0,1-1.39.66,8.81,8.81,0,0,1-.95.24,5.49,5.49,0,0,1-.85.08,4.46,4.46,0,0,1-3.54-1.32,4.35,4.35,0,0,1-1.14-2.9c.11-1.9.88-3.12,2.31-3.65a20.39,20.39,0,0,1,6.59-.79,9.08,9.08,0,0,0-.44-2.92c-.29-.89-1.13-1.33-2.51-1.33a4.29,4.29,0,0,0-2.49.62,2,2,0,0,0-.9,1.72l-1.91,0A3,3,0,0,1,170.56,19.85ZM177.31,26a1.27,1.27,0,0,1-.28,0h-.28a20.84,20.84,0,0,0-4.42.43,2.32,2.32,0,0,0-2,2.53,2.41,2.41,0,0,0,.92,2.07,3.39,3.39,0,0,0,2.07.67h.25l.23,0a3.42,3.42,0,0,0,1.09-.27,4.1,4.1,0,0,0,1-.54,3.63,3.63,0,0,0,1.1-1.47,6.55,6.55,0,0,0,.43-2.42c0-.15,0-.3,0-.46s0-.33-.05-.51Z"/><path class="cls-1" d="M184.52,21.17l.22-.23.21-.25a7.55,7.55,0,0,1,1.54-1.25,4.08,4.08,0,0,1,2.26-.58,4.4,4.4,0,0,1,1,.13,6.79,6.79,0,0,1,1.24.43,6.08,6.08,0,0,1,1.83,1.43,3.57,3.57,0,0,1,.83,2.47v9.5h-1.69v-8.9a3.8,3.8,0,0,0-.94-2.47,3.15,3.15,0,0,0-2.53-1.11h-.32a3.29,3.29,0,0,0-2.5,1.38,5.63,5.63,0,0,0-1.08,2.71c0,.1,0,.21,0,.31a2.64,2.64,0,0,0,0,.28v7.8h-1.69V21.92c0-.25,0-.55,0-.9s-.09-.92-.18-1.73l1.7,0a13.7,13.7,0,0,1,.21,1.94Z"/><path class="cls-1" d="M199.56,13.34v2.1h-2.13v-2.1Zm-.22,5.92V32.82h-1.69V19.26Z"/><path class="cls-1" d="M205.05,21.17l.21-.23.22-.25A7,7,0,0,1,207,19.44a4.14,4.14,0,0,1,2.25-.58c.28,0,.6,0,.95.05a4.09,4.09,0,0,1,2.41,1.16,4.84,4.84,0,0,1,1.1,1.77A5,5,0,0,1,215,20.22a6.24,6.24,0,0,1,1.56-1,6,6,0,0,1,1-.29,4.88,4.88,0,0,1,.89-.09,4.58,4.58,0,0,1,3.71,1.38,5,5,0,0,1,1.15,3.3v9.28h-1.69v-8.9a3.12,3.12,0,0,0,0-.52c0-.17-.07-.36-.12-.56a3.61,3.61,0,0,0-1.05-1.72,3.32,3.32,0,0,0-2.39-.78,3,3,0,0,0-.64.07,3.16,3.16,0,0,0-.68.22,4.28,4.28,0,0,0-2.5,4.17v8h-1.7v-8.9a3.74,3.74,0,0,0-.94-2.47A3.15,3.15,0,0,0,209,20.34h-.32a3.3,3.3,0,0,0-2.5,1.38,5.63,5.63,0,0,0-1.08,2.71c0,.1,0,.21,0,.31a2.62,2.62,0,0,0,0,.28v7.8h-1.7V21.92c0-.25,0-.55,0-.9s-.09-.92-.18-1.73l1.7,0a13.57,13.57,0,0,1,.22,1.94Z"/><path class="cls-1" d="M228.36,19.85a7,7,0,0,1,3.31-1,.85.85,0,0,1,.23,0h.26a5.53,5.53,0,0,1,3.28,1c.91.65,1.37,1.89,1.37,3.7,0,3.15,0,5.27,0,6.33a20.75,20.75,0,0,0,.15,2.57c0,.07,0,.14,0,.2s0,.12,0,.18h-1.69a.09.09,0,0,1,0-.06,9.38,9.38,0,0,1-.18-1.61,3.37,3.37,0,0,1-1,1.12,5.36,5.36,0,0,1-1.39.66,8.81,8.81,0,0,1-.95.24,5.49,5.49,0,0,1-.85.08,4.42,4.42,0,0,1-3.53-1.32,4.31,4.31,0,0,1-1.15-2.9c.11-1.9.88-3.12,2.32-3.65a20.31,20.31,0,0,1,6.59-.79,9.08,9.08,0,0,0-.45-2.92c-.29-.89-1.13-1.33-2.51-1.33a4.29,4.29,0,0,0-2.49.62,2,2,0,0,0-.9,1.72l-1.91,0A3,3,0,0,1,228.36,19.85ZM235.12,26a1.36,1.36,0,0,1-.29,0h-.28a20.84,20.84,0,0,0-4.42.43,2.32,2.32,0,0,0-2,2.53A2.41,2.41,0,0,0,229,31.1a3.39,3.39,0,0,0,2.07.67h.25l.23,0a3.42,3.42,0,0,0,1.09-.27,4.1,4.1,0,0,0,1-.54,3.63,3.63,0,0,0,1.1-1.47,6.55,6.55,0,0,0,.43-2.42c0-.15,0-.3,0-.46s0-.33,0-.51Z"/><path class="cls-1" d="M242.32,13.34V32.82h-1.69V13.34Z"/></svg>