<?xml version="1.0" encoding="utf-8"?>
<!-- Generator: Adobe Illustrator 19.0.0, SVG Export Plug-In . SVG Version: 6.00 Build 0)  -->
<svg version="1.1" id="Capa_1" xmlns="http://www.w3.org/2000/svg" xmlns:xlink="http://www.w3.org/1999/xlink" x="0px" y="0px"
	 viewBox="0 0 248.4 45" style="enable-background:new 0 0 248.4 45;" xml:space="preserve">
<style type="text/css">
	.st0{fill:#FFFFFF;}
</style>
<g id="XMLID_1_">
	<g id="XMLID_470_">
		<path id="XMLID_478_" class="st0" d="M30.2,3.3H12.9C7.1,3.3,2.3,8,2.3,13.9v17.2c0,5.9,4.8,10.6,10.6,10.6h17.2
			c5.9,0,10.6-4.8,10.6-10.6V13.9C40.8,8,36,3.3,30.2,3.3L30.2,3.3z M37.4,31.1c0,4-3.2,7.2-7.2,7.2H12.9c-4,0-7.2-3.2-7.2-7.2V13.9
			c0-4,3.2-7.2,7.2-7.2h17.2c4,0,7.2,3.2,7.2,7.2V31.1z M37.4,31.1"/>
		<path id="XMLID_474_" class="st0" d="M21.5,12.6c-5.5,0-9.9,4.4-9.9,9.9c0,5.5,4.4,9.9,9.9,9.9c5.5,0,9.9-4.4,9.9-9.9
			C31.4,17,27,12.6,21.5,12.6L21.5,12.6z M21.5,29C18,29,15,26.1,15,22.5c0-3.6,2.9-6.5,6.5-6.5s6.5,2.9,6.5,6.5
			C28,26.1,25.1,29,21.5,29L21.5,29z M21.5,29"/>
		<path id="XMLID_471_" class="st0" d="M31.9,9.7c-0.7,0-1.3,0.3-1.8,0.7c-0.5,0.5-0.7,1.1-0.7,1.8c0,0.7,0.3,1.3,0.7,1.8
			c0.5,0.5,1.1,0.7,1.8,0.7c0.7,0,1.3-0.3,1.8-0.7c0.5-0.5,0.7-1.1,0.7-1.8c0-0.7-0.3-1.3-0.7-1.8C33.2,10,32.5,9.7,31.9,9.7
			L31.9,9.7z M31.9,9.7"/>
	</g>
	<g id="XMLID_469_">
		<path id="XMLID_68_" class="st0" d="M56.9,36.3h-1.7V19.7c0-1.1-0.1-2.3-0.1-3.2h1.8l0.1,2.1l0.1,0.1c1-1.7,3-2.6,4.9-2.6
			c4.3,0,5.9,3.8,5.9,7.5c0,3.6-1.6,7.7-5.8,7.7c-2.1,0-3.8-0.9-5-2.7h-0.1V36.3z M61.8,29.7c3.3,0,4.1-3.6,4.1-6.3
			c0-2.7-1.1-5.8-4.4-5.8c-3.3,0-4.6,2.8-4.6,5.7C56.9,26.5,58.1,29.7,61.8,29.7z"/>
		<path id="XMLID_71_" class="st0" d="M73.1,30.8h-1.7V10.1h1.7V30.8z"/>
		<path id="XMLID_73_" class="st0" d="M79.6,12.3h-2v-2.1h2V12.3z M79.5,16.4v14.4h-1.7V16.4H79.5z"/>
		<path id="XMLID_76_" class="st0" d="M85.4,30.8h-1.8c0.1-1,0.1-2.1,0.1-3.2V10.1h1.7v8.4l0.1,0.1c1-1.7,3-2.6,4.9-2.6
			c4.3,0,5.9,3.8,5.9,7.5c0,3.6-1.6,7.7-5.8,7.7c-2.1,0-3.8-0.9-5-2.7l-0.1,0.1L85.4,30.8z M85.5,23.3c0,3.3,1.1,6.3,4.9,6.3
			c3.3,0,4.1-3.6,4.1-6.2c0-2.7-1.1-5.8-4.4-5.8C86.8,17.6,85.5,20.4,85.5,23.3z"/>
		<path id="XMLID_79_" class="st0" d="M101,24c0.1,3.1,1.5,5.6,5,5.6c2,0,3.7-1.5,4.1-3.4h1.8c-0.9,3.4-3,5-6.5,5
			c-4.3,0-6.3-3.7-6.3-7.6c0-3.9,2.1-7.6,6.4-7.6c4.8,0,6.5,3.5,6.5,8H101z M110.2,22.4c-0.2-2.8-1.7-4.9-4.7-4.9
			c-2.8,0-4.3,2.3-4.5,4.9H110.2z"/>
		<path id="XMLID_82_" class="st0" d="M117.6,30.8h-1.7V19.7c0-1.1-0.1-2.3-0.1-3.2h1.8l0.1,2.1h0.1c0.5-1.5,1.8-2.5,3.2-2.5
			c0.6,0,1.1,0,1.7,0v1.7c-0.3,0-0.7-0.1-1.1-0.1c-2.5,0-3.9,1.8-3.9,4.6V30.8z"/>
		<path id="XMLID_84_" class="st0" d="M126.7,18h-2.9v-1.6h2.9v-3.1l1.7-0.7v3.8h3.3V18h-3.3v9.6c0,1.3,0.7,2,2,2c0.5,0,1,0,1.5-0.2
			V31c-0.5,0.1-1.2,0.3-1.7,0.3c-3.6,0-3.4-2.3-3.4-4.3V18z"/>
		<path id="XMLID_86_" class="st0" d="M143.6,20.7c-0.2-2.3-1.4-3.1-3.4-3.1c-1.8,0-3.3,0.5-3.5,2.5h-1.8c0.4-2.9,2.6-4.1,5.4-4.1
			c3.2,0,5.1,1.5,5.1,4.7v6.8c0,1.1,0.1,2.3,0.1,3.2h-1.8l-0.1-2.1h-0.1l-0.1,0.2c-0.6,1.2-2.5,2.3-4.5,2.3c-2.7,0-4.8-1.6-4.8-4.4
			c0-1.9,1.2-3.4,2.9-4.1c1.9-0.8,4.4-0.5,6.5-0.7V20.7z M139.4,29.7c3.7,0,4.5-3.1,4.3-6.1c-2.4,0.1-7.5-0.4-7.5,3.2
			C136.1,28.7,137.6,29.7,139.4,29.7z"/>
		<path id="XMLID_89_" class="st0" d="M159.7,28.7l-0.1-0.1c-1.2,1.7-2.9,2.7-4.9,2.7c-4.3,0-5.9-4.1-5.9-7.7c0-3.7,1.6-7.5,5.9-7.5
			c1.9,0,3.9,0.9,4.9,2.6l0.1-0.1v-8.4h1.7v17.4c0,1.1,0.1,2.3,0.1,3.2h-1.8L159.7,28.7z M155,17.6c-3.3,0-4.3,3-4.3,5.8
			c0,2.7,0.8,6.3,4.1,6.3c3.7,0,4.9-3.1,4.9-6.4C159.7,20.4,158.4,17.6,155,17.6z"/>
		<path id="XMLID_92_" class="st0" d="M173.8,20.7c-0.2-2.3-1.4-3.1-3.4-3.1c-1.8,0-3.3,0.5-3.5,2.5h-1.8c0.4-2.9,2.6-4.1,5.4-4.1
			c3.2,0,5.1,1.5,5.1,4.7v6.8c0,1.1,0.1,2.3,0.1,3.2h-1.8l-0.1-2.1h-0.1l-0.1,0.2c-0.6,1.2-2.5,2.3-4.5,2.3c-2.7,0-4.8-1.6-4.8-4.4
			c0-1.9,1.2-3.4,2.9-4.1c1.9-0.8,4.4-0.5,6.5-0.7V20.7z M169.6,29.7c3.7,0,4.5-3.1,4.3-6.1c-2.4,0.1-7.5-0.4-7.5,3.2
			C166.3,28.7,167.8,29.7,169.6,29.7z"/>
		<path id="XMLID_95_" class="st0" d="M181.7,30.8H180V19.7c0-1.1-0.1-2.3-0.1-3.2h1.8l0.1,2.1l0.1,0.1c1-1.8,2.6-2.6,4.5-2.6
			c4.7,0,5.1,4.1,5.1,5.8v9h-1.7v-9.3c0-2.5-1.4-3.9-3.8-3.9c-2.8,0-4.1,2.4-4.1,4.9V30.8z"/>
		<path id="XMLID_97_" class="st0" d="M197.8,12.3h-2v-2.1h2V12.3z M197.7,16.4v14.4H196V16.4H197.7z"/>
		<path id="XMLID_100_" class="st0" d="M204,18.6L204,18.6c1.1-1.7,2.7-2.5,4.5-2.5c2.3,0,4,1.3,4.7,3.1c1.1-1.7,2.7-3.1,4.9-3.1
			c4.7,0,5.1,4.1,5.1,5.8v9h-1.7v-9.3c0-2.5-1.4-3.9-3.8-3.9c-2.8,0-4.1,2.4-4.1,4.9v8.3h-1.7v-9.3c0-2.5-1.4-3.9-3.8-3.9
			c-2.8,0-4.1,2.4-4.1,4.9v8.3h-1.7V19.7c0-1.1-0.1-2.3-0.1-3.2h1.8L204,18.6z"/>
		<path id="XMLID_102_" class="st0" d="M235.8,20.7c-0.2-2.3-1.4-3.1-3.4-3.1c-1.8,0-3.3,0.5-3.5,2.5h-1.8c0.4-2.9,2.6-4.1,5.4-4.1
			c3.2,0,5.1,1.5,5.1,4.7v6.8c0,1.1,0.1,2.3,0.1,3.2h-1.8l-0.1-2.1h-0.1l-0.1,0.2c-0.6,1.2-2.5,2.3-4.5,2.3c-2.7,0-4.8-1.6-4.8-4.4
			c0-1.9,1.2-3.4,2.9-4.1c1.9-0.8,4.4-0.5,6.5-0.7V20.7z M231.5,29.7c3.7,0,4.5-3.1,4.3-6.1c-2.4,0.1-7.5-0.4-7.5,3.2
			C228.3,28.7,229.8,29.7,231.5,29.7z"/>
		<path id="XMLID_105_" class="st0" d="M243.8,30.8H242V10.1h1.7V30.8z"/>
	</g>
</g>
</svg>
