<?xml version="1.0" encoding="utf-8"?>
<!-- Generator: Adobe Illustrator 19.0.0, SVG Export Plug-In . SVG Version: 6.00 Build 0)  -->
<svg version="1.1" id="Capa_1" xmlns="http://www.w3.org/2000/svg" xmlns:xlink="http://www.w3.org/1999/xlink" x="0px" y="0px"
	 viewBox="0 0 248.4 45" style="enable-background:new 0 0 248.4 45;" xml:space="preserve">
<style type="text/css">
	.st0{fill:#FFFFFF;}
</style>
<g id="XMLID_1_">
	<g id="XMLID_468_">
		<path id="XMLID_68_" class="st0" d="M57.6,36.3h-1.7V19.7c0-1.1-0.1-2.3-0.1-3.2h1.8l0.1,2.1l0.1,0.1c1-1.7,3-2.6,4.9-2.6
			c4.3,0,5.9,3.8,5.9,7.5c0,3.6-1.6,7.7-5.8,7.7c-2.1,0-3.8-0.9-5-2.7h-0.1V36.3z M62.5,29.7c3.3,0,4.1-3.6,4.1-6.3
			c0-2.7-1.1-5.8-4.4-5.8c-3.3,0-4.6,2.8-4.6,5.7C57.6,26.5,58.7,29.7,62.5,29.7z"/>
		<path id="XMLID_71_" class="st0" d="M73.8,30.8h-1.7V10.1h1.7V30.8z"/>
		<path id="XMLID_73_" class="st0" d="M80.3,12.3h-2v-2.1h2V12.3z M80.1,16.4v14.4h-1.7V16.4H80.1z"/>
		<path id="XMLID_76_" class="st0" d="M86.1,30.8h-1.8c0.1-1,0.1-2.1,0.1-3.2V10.1h1.7v8.4l0.1,0.1c1-1.7,3-2.6,4.9-2.6
			c4.3,0,5.9,3.8,5.9,7.5c0,3.6-1.6,7.7-5.8,7.7c-2.1,0-3.8-0.9-5-2.7l-0.1,0.1L86.1,30.8z M86.2,23.3c0,3.3,1.1,6.3,4.9,6.3
			c3.3,0,4.1-3.6,4.1-6.2c0-2.7-1.1-5.8-4.4-5.8C87.5,17.6,86.2,20.4,86.2,23.3z"/>
		<path id="XMLID_79_" class="st0" d="M101.6,24c0.1,3.1,1.5,5.6,5,5.6c2,0,3.7-1.5,4.1-3.4h1.8c-0.9,3.4-3,5-6.5,5
			c-4.3,0-6.3-3.7-6.3-7.6c0-3.9,2.1-7.6,6.4-7.6c4.8,0,6.5,3.5,6.5,8H101.6z M110.9,22.4c-0.2-2.8-1.7-4.9-4.7-4.9
			c-2.8,0-4.3,2.3-4.5,4.9H110.9z"/>
		<path id="XMLID_82_" class="st0" d="M118.3,30.8h-1.7V19.7c0-1.1-0.1-2.3-0.1-3.2h1.8l0.1,2.1h0.1c0.5-1.5,1.8-2.5,3.2-2.5
			c0.6,0,1.1,0,1.7,0v1.7c-0.3,0-0.7-0.1-1.1-0.1c-2.5,0-3.9,1.8-3.9,4.6V30.8z"/>
		<path id="XMLID_84_" class="st0" d="M127.3,18h-2.9v-1.6h2.9v-3.1l1.7-0.7v3.8h3.3V18H129v9.6c0,1.3,0.7,2,2,2c0.5,0,1,0,1.5-0.2
			V31c-0.5,0.1-1.2,0.3-1.7,0.3c-3.6,0-3.4-2.3-3.4-4.3V18z"/>
		<path id="XMLID_86_" class="st0" d="M144.3,20.7c-0.2-2.3-1.4-3.1-3.4-3.1c-1.8,0-3.3,0.5-3.5,2.5h-1.8c0.4-2.9,2.6-4.1,5.4-4.1
			c3.2,0,5.1,1.5,5.1,4.7v6.8c0,1.1,0.1,2.3,0.1,3.2h-1.8l-0.1-2.1h-0.1l-0.1,0.2c-0.6,1.2-2.5,2.3-4.5,2.3c-2.7,0-4.8-1.6-4.8-4.4
			c0-1.9,1.2-3.4,2.9-4.1c1.9-0.8,4.4-0.5,6.5-0.7V20.7z M140,29.7c3.7,0,4.5-3.1,4.3-6.1c-2.4,0.1-7.5-0.4-7.5,3.2
			C136.8,28.7,138.3,29.7,140,29.7z"/>
		<path id="XMLID_89_" class="st0" d="M160.4,28.7l-0.1-0.1c-1.2,1.7-2.9,2.7-4.9,2.7c-4.3,0-5.9-4.1-5.9-7.7c0-3.7,1.6-7.5,5.9-7.5
			c1.9,0,3.9,0.9,4.9,2.6l0.1-0.1v-8.4h1.7v17.4c0,1.1,0.1,2.3,0.1,3.2h-1.8L160.4,28.7z M155.7,17.6c-3.3,0-4.3,3-4.3,5.8
			c0,2.7,0.8,6.3,4.1,6.3c3.7,0,4.9-3.1,4.9-6.4C160.3,20.4,159,17.6,155.7,17.6z"/>
		<path id="XMLID_92_" class="st0" d="M174.5,20.7c-0.2-2.3-1.4-3.1-3.4-3.1c-1.8,0-3.3,0.5-3.5,2.5h-1.8c0.4-2.9,2.6-4.1,5.4-4.1
			c3.2,0,5.1,1.5,5.1,4.7v6.8c0,1.1,0.1,2.3,0.1,3.2h-1.8l-0.1-2.1h-0.1l-0.1,0.2c-0.6,1.2-2.5,2.3-4.5,2.3c-2.7,0-4.8-1.6-4.8-4.4
			c0-1.9,1.2-3.4,2.9-4.1c1.9-0.8,4.4-0.5,6.5-0.7V20.7z M170.2,29.7c3.7,0,4.5-3.1,4.3-6.1c-2.4,0.1-7.5-0.4-7.5,3.2
			C167,28.7,168.5,29.7,170.2,29.7z"/>
		<path id="XMLID_95_" class="st0" d="M182.4,30.8h-1.7V19.7c0-1.1-0.1-2.3-0.1-3.2h1.8l0.1,2.1l0.1,0.1c1-1.8,2.6-2.6,4.5-2.6
			c4.7,0,5.1,4.1,5.1,5.8v9h-1.7v-9.3c0-2.5-1.4-3.9-3.8-3.9c-2.8,0-4.1,2.4-4.1,4.9V30.8z"/>
		<path id="XMLID_97_" class="st0" d="M198.5,12.3h-2v-2.1h2V12.3z M198.3,16.4v14.4h-1.7V16.4H198.3z"/>
		<path id="XMLID_100_" class="st0" d="M204.6,18.6L204.6,18.6c1.1-1.7,2.7-2.5,4.5-2.5c2.3,0,4,1.3,4.7,3.1
			c1.1-1.7,2.7-3.1,4.9-3.1c4.7,0,5.1,4.1,5.1,5.8v9h-1.7v-9.3c0-2.5-1.4-3.9-3.8-3.9c-2.8,0-4.1,2.4-4.1,4.9v8.3h-1.7v-9.3
			c0-2.5-1.4-3.9-3.8-3.9c-2.8,0-4.1,2.4-4.1,4.9v8.3h-1.7V19.7c0-1.1-0.1-2.3-0.1-3.2h1.8L204.6,18.6z"/>
		<path id="XMLID_102_" class="st0" d="M236.5,20.7c-0.2-2.3-1.4-3.1-3.4-3.1c-1.8,0-3.3,0.5-3.5,2.5h-1.8c0.4-2.9,2.6-4.1,5.4-4.1
			c3.2,0,5.1,1.5,5.1,4.7v6.8c0,1.1,0.1,2.3,0.1,3.2h-1.8l-0.1-2.1h-0.1l-0.1,0.2c-0.6,1.2-2.5,2.3-4.5,2.3c-2.7,0-4.8-1.6-4.8-4.4
			c0-1.9,1.2-3.4,2.9-4.1c1.9-0.8,4.4-0.5,6.5-0.7V20.7z M232.2,29.7c3.7,0,4.5-3.1,4.3-6.1c-2.4,0.1-7.5-0.4-7.5,3.2
			C229,28.7,230.4,29.7,232.2,29.7z"/>
		<path id="XMLID_105_" class="st0" d="M244.4,30.8h-1.7V10.1h1.7V30.8z"/>
	</g>
	<g id="XMLID_466_">
		<path id="XMLID_467_" class="st0" d="M15,39.7c16,0,24.7-13.2,24.7-24.7c0-0.4,0-0.8,0-1.1c1.7-1.2,3.2-2.8,4.3-4.5
			c-1.6,0.7-3.2,1.2-5,1.4c1.8-1.1,3.2-2.8,3.8-4.8c-1.7,1-3.5,1.7-5.5,2.1c-1.6-1.7-3.8-2.7-6.3-2.7c-4.8,0-8.7,3.9-8.7,8.7
			c0,0.7,0.1,1.3,0.2,2c-7.2-0.4-13.6-3.8-17.9-9.1c-0.7,1.3-1.2,2.8-1.2,4.4c0,3,1.5,5.7,3.9,7.2c-1.4,0-2.8-0.4-3.9-1.1
			c0,0,0,0.1,0,0.1c0,4.2,3,7.7,7,8.5c-0.7,0.2-1.5,0.3-2.3,0.3c-0.6,0-1.1-0.1-1.6-0.2c1.1,3.4,4.3,6,8.1,6
			c-3,2.3-6.7,3.7-10.8,3.7c-0.7,0-1.4,0-2.1-0.1C5.5,38.3,10.1,39.7,15,39.7"/>
	</g>
</g>
</svg>
