<?xml version="1.0" encoding="utf-8"?>
<!-- Generator: Adobe Illustrator 19.0.0, SVG Export Plug-In . SVG Version: 6.00 Build 0)  -->
<svg version="1.1" id="Capa_1" xmlns="http://www.w3.org/2000/svg" xmlns:xlink="http://www.w3.org/1999/xlink" x="0px" y="0px"
	 viewBox="-386 261.6 186 38.4" style="enable-background:new -386 261.6 186 38.4;" xml:space="preserve">
<style type="text/css">
	.st0{fill:#FFFFFF;}
	.st1{fill:#C54225;}
</style>
<g id="XMLID_266_">
	<g id="XMLID_276_">
		<path id="XMLID_287_" class="st0" d="M-346.9,280.1c0,9.6-7.7,17.5-17.2,17.8c0.2-0.4,0.3-0.8,0.5-1.1c0.7-1.9,1.1-3.9,1.1-6
			c0-0.2,0-0.5,0-0.7c-0.1-1.3-0.3-2.5-0.6-3.7c0.2,0,0.5,0,0.7,0c4.7,0,8.5-3.8,8.5-8.5s-3.8-8.5-8.5-8.5c-1.1,0-2.1,0.2-3,0.5
			c0-0.1,0-0.2,0-0.4c0-2.9-1.7-5.3-4.1-6.5c1.5-0.4,3.1-0.7,4.8-0.7C-354.8,262.2-346.9,270.2-346.9,280.1z"/>
		<path id="XMLID_284_" class="st0" d="M-367.9,282.1c0,0-0.1,0-0.1,0c-5.7,0.7-10.2,5.6-10.2,11.6c0,2.8,1,5.3,2.6,7.3
			c-6-1.7-10.3-7.2-10.3-13.7c0-4.7,2.2-8.8,5.7-11.4c0,0,0,0,0,0C-375.2,276-370.7,278.4-367.9,282.1z"/>
		<circle id="XMLID_281_" class="st0" cx="-362.6" cy="276.7" r="2.2"/>
		<circle id="XMLID_280_" class="st1" cx="-372.9" cy="269.8" r="6.6"/>
		<path id="XMLID_277_" class="st0" d="M-364.7,291.8c0,1.1-0.1,2.2-0.3,3.2c0,0,0,0,0,0l-1,2.4c0,0,0,0,0,0
			c-4.5-0.4-10.5-1.9-9.8-6.8c0.5-3.2,2.6-5.9,5.8-6.1h0c3.8-0.3,5.3,3.4,5.3,6.6C-364.7,291.3-364.7,291.6-364.7,291.8z"/>
	</g>
	<g id="XMLID_267_">
		<path id="XMLID_273_" class="st0" d="M-328.4,260.7h18.7c12.1,0,17.1,4.2,17.1,12.3c0,4.5-2.2,11.7-15.7,11.7h-11.4v14.4h-8.6
			V260.7z M-319.8,278.5h10.1c4.6,0,8.2-1.3,8.2-5.5c0-5.2-4.8-6-9.7-6h-8.5V278.5z"/>
		<path id="XMLID_271_" class="st0" d="M-286.2,260.7h8.6v32.1h21.1v6.3h-29.7V260.7z"/>
		<path id="XMLID_268_" class="st0" d="M-230.4,260.7h10.9l19.6,38.4h-10.2l-4.4-8.6h-22.1l-4,8.6h-9.3L-230.4,260.7z M-217.6,284.2
			l-8-16.7l-8,16.7H-217.6z"/>
	</g>
</g>
</svg>
