<svg xmlns="http://www.w3.org/2000/svg" viewBox="0 0 122.28 88.08"><defs><style>.cls-1{fill:#009be8;}</style></defs><title>_Mesa de trabajo 9</title><g id="Modo_de_aislamiento" data-name="Modo de aislamiento"><path class="cls-1" d="M86.38,74.17c-15.24,0-28.12-12.58-28.12-27.46v-.5c0-10.63-9.64-20-20.62-20S17,35.58,17,46.21a3.75,3.75,0,1,1-7.49,0c0-14.88,12.87-27.46,28.12-27.46S65.76,31.33,65.76,46.21v.5c0,10.63,9.63,20,20.62,20S107,57.34,107,46.71v-.5a3.75,3.75,0,0,1,7.5,0v.5C114.5,61.59,101.62,74.17,86.38,74.17Z"/><path class="cls-1" d="M98.61,32.13a3.75,3.75,0,0,1-2.93-1.4,12.4,12.4,0,0,0-8.19-4A14.88,14.88,0,0,0,76.5,30a3.75,3.75,0,1,1-4.7-5.84,22.33,22.33,0,0,1,16.49-4.88A20,20,0,0,1,101.53,26a3.75,3.75,0,0,1-2.92,6.1Z"/></g></svg>